solid OpenSCAD_Model
  facet normal 0 0 -1
    outer loop
      vertex -22 0 0
      vertex -21.5192 4.57406 0
      vertex -21.5192 -4.57406 0
    endloop
  endfacet
  facet normal 0 0 -1
    outer loop
      vertex -21.5192 -4.57406 0
      vertex -21.5192 4.57406 0
      vertex -20.098 8.94821 0
    endloop
  endfacet
  facet normal 0 0 -1
    outer loop
      vertex -21.5192 -4.57406 0
      vertex -20.098 8.94821 0
      vertex -17.7984 12.9313 0
    endloop
  endfacet
  facet normal 0 0 -1
    outer loop
      vertex -21.5192 -4.57406 0
      vertex -17.7984 12.9313 0
      vertex -14.7209 16.3492 0
    endloop
  endfacet
  facet normal 0 0 -1
    outer loop
      vertex -21.5192 -4.57406 0
      vertex -14.7209 16.3492 0
      vertex -11 19.0526 0
    endloop
  endfacet
  facet normal 0 0 -1
    outer loop
      vertex -21.5192 -4.57406 0
      vertex -11 19.0526 0
      vertex -6.79837 20.9232 0
    endloop
  endfacet
  facet normal 0 0 -1
    outer loop
      vertex -21.5192 -4.57406 0
      vertex -6.79837 20.9232 0
      vertex -2.29963 21.8795 0
    endloop
  endfacet
  facet normal 0 0 -1
    outer loop
      vertex -21.5192 -4.57406 0
      vertex -2.29963 21.8795 0
      vertex 2.29963 21.8795 0
    endloop
  endfacet
  facet normal 0 0 -1
    outer loop
      vertex -21.5192 -4.57406 0
      vertex 2.29963 21.8795 0
      vertex 6.79837 20.9232 0
    endloop
  endfacet
  facet normal 0 0 -1
    outer loop
      vertex -21.5192 -4.57406 0
      vertex 6.79837 20.9232 0
      vertex 11 19.0526 0
    endloop
  endfacet
  facet normal 0 0 -1
    outer loop
      vertex -21.5192 -4.57406 0
      vertex 11 19.0526 0
      vertex 14.7209 16.3492 0
    endloop
  endfacet
  facet normal 0 0 -1
    outer loop
      vertex -21.5192 -4.57406 0
      vertex 14.7209 16.3492 0
      vertex 17.7984 12.9313 0
    endloop
  endfacet
  facet normal 0 0 -1
    outer loop
      vertex -21.5192 -4.57406 0
      vertex 17.7984 12.9313 0
      vertex 20.098 8.94821 0
    endloop
  endfacet
  facet normal 0 0 -1
    outer loop
      vertex -21.5192 -4.57406 0
      vertex 20.098 8.94821 0
      vertex 21.5192 4.57406 0
    endloop
  endfacet
  facet normal 0 0 -1
    outer loop
      vertex -21.5192 -4.57406 0
      vertex 21.5192 4.57406 0
      vertex 22 0 0
    endloop
  endfacet
  facet normal 0 0 -1
    outer loop
      vertex -21.5192 -4.57406 0
      vertex 22 0 0
      vertex 21.5192 -4.57406 0
    endloop
  endfacet
  facet normal 0 0 -1
    outer loop
      vertex -21.5192 -4.57406 0
      vertex 21.5192 -4.57406 0
      vertex 20.098 -8.94821 0
    endloop
  endfacet
  facet normal 0 0 -1
    outer loop
      vertex -21.5192 -4.57406 0
      vertex 20.098 -8.94821 0
      vertex 17.7984 -12.9313 0
    endloop
  endfacet
  facet normal 0 0 -1
    outer loop
      vertex -21.5192 -4.57406 0
      vertex 17.7984 -12.9313 0
      vertex 14.7209 -16.3492 0
    endloop
  endfacet
  facet normal 0 0 -1
    outer loop
      vertex -21.5192 -4.57406 0
      vertex 14.7209 -16.3492 0
      vertex 11 -19.0526 0
    endloop
  endfacet
  facet normal 0 0 -1
    outer loop
      vertex -21.5192 -4.57406 0
      vertex 11 -19.0526 0
      vertex 6.79837 -20.9232 0
    endloop
  endfacet
  facet normal 0 0 -1
    outer loop
      vertex -21.5192 -4.57406 0
      vertex 6.79837 -20.9232 0
      vertex 2.29963 -21.8795 0
    endloop
  endfacet
  facet normal 0 0 -1
    outer loop
      vertex -21.5192 -4.57406 0
      vertex 2.29963 -21.8795 0
      vertex -2.29963 -21.8795 0
    endloop
  endfacet
  facet normal 0 0 -1
    outer loop
      vertex -21.5192 -4.57406 0
      vertex -2.29963 -21.8795 0
      vertex -6.79837 -20.9232 0
    endloop
  endfacet
  facet normal 0 0 -1
    outer loop
      vertex -21.5192 -4.57406 0
      vertex -6.79837 -20.9232 0
      vertex -11 -19.0526 0
    endloop
  endfacet
  facet normal 0 0 -1
    outer loop
      vertex -21.5192 -4.57406 0
      vertex -11 -19.0526 0
      vertex -14.7209 -16.3492 0
    endloop
  endfacet
  facet normal 0 0 -1
    outer loop
      vertex -21.5192 -4.57406 0
      vertex -14.7209 -16.3492 0
      vertex -17.7984 -12.9313 0
    endloop
  endfacet
  facet normal 0 0 -1
    outer loop
      vertex -21.5192 -4.57406 0
      vertex -17.7984 -12.9313 0
      vertex -20.098 -8.94821 0
    endloop
  endfacet
  facet normal -0.994522 0.104529 0
    outer loop
      vertex -22 0 0
      vertex -22 0 50
      vertex -21.5192 4.57406 0
    endloop
  endfacet
  facet normal -0.994522 0.104529 0
    outer loop
      vertex -21.5192 4.57406 0
      vertex -22 0 50
      vertex -21.5192 4.57406 50
    endloop
  endfacet
  facet normal -0.994522 -0.104529 0
    outer loop
      vertex -22 0 0
      vertex -21.5192 -4.57406 0
      vertex -22 0 50
    endloop
  endfacet
  facet normal -0.994522 -0.104529 0
    outer loop
      vertex -22 0 50
      vertex -21.5192 -4.57406 0
      vertex -21.5192 -4.57406 50
    endloop
  endfacet
  facet normal -0.951057 -0.309017 0
    outer loop
      vertex -21.5192 -4.57406 0
      vertex -20.098 -8.94821 0
      vertex -21.5192 -4.57406 50
    endloop
  endfacet
  facet normal -0.951057 -0.309017 0
    outer loop
      vertex -21.5192 -4.57406 50
      vertex -20.098 -8.94821 0
      vertex -20.098 -8.94821 50
    endloop
  endfacet
  facet normal -0.866025 -0.5 0
    outer loop
      vertex -20.098 -8.94821 0
      vertex -17.7984 -12.9313 0
      vertex -20.098 -8.94821 50
    endloop
  endfacet
  facet normal -0.866025 -0.5 0
    outer loop
      vertex -20.098 -8.94821 50
      vertex -17.7984 -12.9313 0
      vertex -17.7984 -12.9313 50
    endloop
  endfacet
  facet normal -0.743145 -0.669131 0
    outer loop
      vertex -17.7984 -12.9313 0
      vertex -14.7209 -16.3492 0
      vertex -17.7984 -12.9313 50
    endloop
  endfacet
  facet normal -0.743145 -0.669131 0
    outer loop
      vertex -17.7984 -12.9313 50
      vertex -14.7209 -16.3492 0
      vertex -14.7209 -16.3492 50
    endloop
  endfacet
  facet normal -0.587785 -0.809017 0
    outer loop
      vertex -14.7209 -16.3492 50
      vertex -14.7209 -16.3492 0
      vertex -11 -19.0526 0
    endloop
  endfacet
  facet normal -0.587785 -0.809017 0
    outer loop
      vertex -11 -19.0526 50
      vertex -14.7209 -16.3492 50
      vertex -11 -19.0526 0
    endloop
  endfacet
  facet normal -0.406737 -0.913545 0
    outer loop
      vertex -11 -19.0526 50
      vertex -11 -19.0526 0
      vertex -6.79837 -20.9232 0
    endloop
  endfacet
  facet normal -0.406737 -0.913545 0
    outer loop
      vertex -6.79837 -20.9232 50
      vertex -11 -19.0526 50
      vertex -6.79837 -20.9232 0
    endloop
  endfacet
  facet normal -0.207912 -0.978148 0
    outer loop
      vertex -6.79837 -20.9232 50
      vertex -6.79837 -20.9232 0
      vertex -2.29963 -21.8795 0
    endloop
  endfacet
  facet normal -0.207912 -0.978148 0
    outer loop
      vertex -2.29963 -21.8795 50
      vertex -6.79837 -20.9232 50
      vertex -2.29963 -21.8795 0
    endloop
  endfacet
  facet normal 0 -1 0
    outer loop
      vertex -2.29963 -21.8795 50
      vertex -2.29963 -21.8795 0
      vertex 2.29963 -21.8795 0
    endloop
  endfacet
  facet normal 0 -1 0
    outer loop
      vertex 2.29963 -21.8795 50
      vertex -2.29963 -21.8795 50
      vertex 2.29963 -21.8795 0
    endloop
  endfacet
  facet normal 0.207912 -0.978148 0
    outer loop
      vertex 2.29963 -21.8795 50
      vertex 2.29963 -21.8795 0
      vertex 6.79837 -20.9232 0
    endloop
  endfacet
  facet normal 0.207912 -0.978148 0
    outer loop
      vertex 6.79837 -20.9232 50
      vertex 2.29963 -21.8795 50
      vertex 6.79837 -20.9232 0
    endloop
  endfacet
  facet normal 0.406737 -0.913545 0
    outer loop
      vertex 6.79837 -20.9232 50
      vertex 6.79837 -20.9232 0
      vertex 11 -19.0526 0
    endloop
  endfacet
  facet normal 0.406737 -0.913545 0
    outer loop
      vertex 11 -19.0526 50
      vertex 6.79837 -20.9232 50
      vertex 11 -19.0526 0
    endloop
  endfacet
  facet normal 0.587785 -0.809017 0
    outer loop
      vertex 11 -19.0526 50
      vertex 11 -19.0526 0
      vertex 14.7209 -16.3492 0
    endloop
  endfacet
  facet normal 0.587785 -0.809017 0
    outer loop
      vertex 14.7209 -16.3492 50
      vertex 11 -19.0526 50
      vertex 14.7209 -16.3492 0
    endloop
  endfacet
  facet normal 0.743145 -0.669131 0
    outer loop
      vertex 14.7209 -16.3492 50
      vertex 14.7209 -16.3492 0
      vertex 17.7984 -12.9313 0
    endloop
  endfacet
  facet normal 0.743145 -0.669131 0
    outer loop
      vertex 17.7984 -12.9313 50
      vertex 14.7209 -16.3492 50
      vertex 17.7984 -12.9313 0
    endloop
  endfacet
  facet normal 0.866025 -0.5 0
    outer loop
      vertex 17.7984 -12.9313 50
      vertex 17.7984 -12.9313 0
      vertex 20.098 -8.94821 0
    endloop
  endfacet
  facet normal 0.866025 -0.5 0
    outer loop
      vertex 20.098 -8.94821 50
      vertex 17.7984 -12.9313 50
      vertex 20.098 -8.94821 0
    endloop
  endfacet
  facet normal 0.951057 -0.309017 0
    outer loop
      vertex 20.098 -8.94821 50
      vertex 20.098 -8.94821 0
      vertex 21.5192 -4.57406 0
    endloop
  endfacet
  facet normal 0.951057 -0.309017 0
    outer loop
      vertex 21.5192 -4.57406 50
      vertex 20.098 -8.94821 50
      vertex 21.5192 -4.57406 0
    endloop
  endfacet
  facet normal 0.994522 -0.104529 0
    outer loop
      vertex 21.5192 -4.57406 50
      vertex 21.5192 -4.57406 0
      vertex 22 0 0
    endloop
  endfacet
  facet normal 0.994522 -0.104529 0
    outer loop
      vertex 22 0 50
      vertex 21.5192 -4.57406 50
      vertex 22 0 0
    endloop
  endfacet
  facet normal 0.994522 0.104529 0
    outer loop
      vertex 22 0 0
      vertex 21.5192 4.57406 0
      vertex 21.5192 4.57406 50
    endloop
  endfacet
  facet normal 0.994522 0.104529 0
    outer loop
      vertex 22 0 50
      vertex 22 0 0
      vertex 21.5192 4.57406 50
    endloop
  endfacet
  facet normal 0.951057 0.309017 0
    outer loop
      vertex 21.5192 4.57406 0
      vertex 20.098 8.94821 0
      vertex 20.098 8.94821 50
    endloop
  endfacet
  facet normal 0.951057 0.309017 0
    outer loop
      vertex 21.5192 4.57406 50
      vertex 21.5192 4.57406 0
      vertex 20.098 8.94821 50
    endloop
  endfacet
  facet normal 0.866025 0.5 0
    outer loop
      vertex 20.098 8.94821 0
      vertex 17.7984 12.9313 0
      vertex 17.7984 12.9313 50
    endloop
  endfacet
  facet normal 0.866025 0.5 0
    outer loop
      vertex 20.098 8.94821 50
      vertex 20.098 8.94821 0
      vertex 17.7984 12.9313 50
    endloop
  endfacet
  facet normal 0.743145 0.669131 0
    outer loop
      vertex 17.7984 12.9313 0
      vertex 14.7209 16.3492 0
      vertex 14.7209 16.3492 50
    endloop
  endfacet
  facet normal 0.743145 0.669131 0
    outer loop
      vertex 17.7984 12.9313 50
      vertex 17.7984 12.9313 0
      vertex 14.7209 16.3492 50
    endloop
  endfacet
  facet normal 0.587785 0.809017 0
    outer loop
      vertex 11 19.0526 0
      vertex 11 19.0526 50
      vertex 14.7209 16.3492 0
    endloop
  endfacet
  facet normal 0.587785 0.809017 0
    outer loop
      vertex 14.7209 16.3492 0
      vertex 11 19.0526 50
      vertex 14.7209 16.3492 50
    endloop
  endfacet
  facet normal 0.406737 0.913545 0
    outer loop
      vertex 6.79837 20.9232 0
      vertex 6.79837 20.9232 50
      vertex 11 19.0526 0
    endloop
  endfacet
  facet normal 0.406737 0.913545 0
    outer loop
      vertex 11 19.0526 0
      vertex 6.79837 20.9232 50
      vertex 11 19.0526 50
    endloop
  endfacet
  facet normal 0.207912 0.978148 0
    outer loop
      vertex 2.29963 21.8795 0
      vertex 2.29963 21.8795 50
      vertex 6.79837 20.9232 0
    endloop
  endfacet
  facet normal 0.207912 0.978148 0
    outer loop
      vertex 6.79837 20.9232 0
      vertex 2.29963 21.8795 50
      vertex 6.79837 20.9232 50
    endloop
  endfacet
  facet normal 0 1 0
    outer loop
      vertex -2.29963 21.8795 0
      vertex -2.29963 21.8795 50
      vertex 2.29963 21.8795 0
    endloop
  endfacet
  facet normal 0 1 0
    outer loop
      vertex 2.29963 21.8795 0
      vertex -2.29963 21.8795 50
      vertex 2.29963 21.8795 50
    endloop
  endfacet
  facet normal -0.207912 0.978148 0
    outer loop
      vertex -6.79837 20.9232 0
      vertex -6.79837 20.9232 50
      vertex -2.29963 21.8795 0
    endloop
  endfacet
  facet normal -0.207912 0.978148 0
    outer loop
      vertex -2.29963 21.8795 0
      vertex -6.79837 20.9232 50
      vertex -2.29963 21.8795 50
    endloop
  endfacet
  facet normal -0.406737 0.913545 0
    outer loop
      vertex -11 19.0526 0
      vertex -11 19.0526 50
      vertex -6.79837 20.9232 0
    endloop
  endfacet
  facet normal -0.406737 0.913545 0
    outer loop
      vertex -6.79837 20.9232 0
      vertex -11 19.0526 50
      vertex -6.79837 20.9232 50
    endloop
  endfacet
  facet normal -0.587785 0.809017 0
    outer loop
      vertex -14.7209 16.3492 0
      vertex -14.7209 16.3492 50
      vertex -11 19.0526 0
    endloop
  endfacet
  facet normal -0.587785 0.809017 0
    outer loop
      vertex -11 19.0526 0
      vertex -14.7209 16.3492 50
      vertex -11 19.0526 50
    endloop
  endfacet
  facet normal -0.743145 0.669131 0
    outer loop
      vertex -17.7984 12.9313 0
      vertex -17.7984 12.9313 50
      vertex -14.7209 16.3492 0
    endloop
  endfacet
  facet normal -0.743145 0.669131 0
    outer loop
      vertex -14.7209 16.3492 0
      vertex -17.7984 12.9313 50
      vertex -14.7209 16.3492 50
    endloop
  endfacet
  facet normal -0.866025 0.5 0
    outer loop
      vertex -20.098 8.94821 0
      vertex -20.098 8.94821 50
      vertex -17.7984 12.9313 0
    endloop
  endfacet
  facet normal -0.866025 0.5 0
    outer loop
      vertex -17.7984 12.9313 0
      vertex -20.098 8.94821 50
      vertex -17.7984 12.9313 50
    endloop
  endfacet
  facet normal -0.951057 0.309017 0
    outer loop
      vertex -21.5192 4.57406 0
      vertex -21.5192 4.57406 50
      vertex -20.098 8.94821 0
    endloop
  endfacet
  facet normal -0.951057 0.309017 0
    outer loop
      vertex -20.098 8.94821 0
      vertex -21.5192 4.57406 50
      vertex -20.098 8.94821 50
    endloop
  endfacet
  facet normal -0.989133 0.103962 0.103962
    outer loop
      vertex -21.5192 4.57406 50
      vertex -22 0 50
      vertex -21.049 4.4741 54.5741
    endloop
  endfacet
  facet normal -0.945903 0.307342 0.103962
    outer loop
      vertex -20.098 8.94821 50
      vertex -21.5192 4.57406 50
      vertex -19.6588 8.75267 54.5741
    endloop
  endfacet
  facet normal -0.945903 0.307342 0.103962
    outer loop
      vertex -19.6588 8.75267 54.5741
      vertex -21.5192 4.57406 50
      vertex -21.049 4.4741 54.5741
    endloop
  endfacet
  facet normal -0.989133 0.103962 0.103962
    outer loop
      vertex -21.049 4.4741 54.5741
      vertex -22 0 50
      vertex -21.5192 0 54.5741
    endloop
  endfacet
  facet normal -0.989133 -0.103962 0.103962
    outer loop
      vertex -21.5192 0 54.5741
      vertex -22 0 50
      vertex -21.5192 -4.57406 50
    endloop
  endfacet
  facet normal -0.989133 -0.103962 0.103962
    outer loop
      vertex -21.5192 0 54.5741
      vertex -21.5192 -4.57406 50
      vertex -21.049 -4.4741 54.5741
    endloop
  endfacet
  facet normal -0.945903 -0.307342 0.103962
    outer loop
      vertex -21.049 -4.4741 54.5741
      vertex -21.5192 -4.57406 50
      vertex -20.098 -8.94821 50
    endloop
  endfacet
  facet normal -0.945903 -0.307342 0.103962
    outer loop
      vertex -19.6588 -8.75267 54.5741
      vertex -21.049 -4.4741 54.5741
      vertex -20.098 -8.94821 50
    endloop
  endfacet
  facet normal -0.861333 -0.497291 0.103962
    outer loop
      vertex -19.6588 -8.75267 54.5741
      vertex -20.098 -8.94821 50
      vertex -17.7984 -12.9313 50
    endloop
  endfacet
  facet normal -0.861333 -0.497291 0.103962
    outer loop
      vertex -17.4094 -12.6487 54.5741
      vertex -19.6588 -8.75267 54.5741
      vertex -17.7984 -12.9313 50
    endloop
  endfacet
  facet normal -0.739118 -0.665505 0.103962
    outer loop
      vertex -17.4094 -12.6487 54.5741
      vertex -17.7984 -12.9313 50
      vertex -14.7209 -16.3492 50
    endloop
  endfacet
  facet normal -0.739118 -0.665505 0.103962
    outer loop
      vertex -14.3992 -15.9919 54.5741
      vertex -17.4094 -12.6487 54.5741
      vertex -14.7209 -16.3492 50
    endloop
  endfacet
  facet normal -0.5846 -0.804633 0.103962
    outer loop
      vertex -14.3992 -15.9919 54.5741
      vertex -14.7209 -16.3492 50
      vertex -11 -19.0526 50
    endloop
  endfacet
  facet normal -0.5846 -0.804633 0.103962
    outer loop
      vertex -10.7596 -18.6362 54.5741
      vertex -14.3992 -15.9919 54.5741
      vertex -11 -19.0526 50
    endloop
  endfacet
  facet normal -0.404533 -0.908595 0.103962
    outer loop
      vertex -10.7596 -18.6362 54.5741
      vertex -11 -19.0526 50
      vertex -6.79837 -20.9232 50
    endloop
  endfacet
  facet normal -0.404533 -0.908595 0.103962
    outer loop
      vertex -6.64981 -20.466 54.5741
      vertex -10.7596 -18.6362 54.5741
      vertex -6.79837 -20.9232 50
    endloop
  endfacet
  facet normal -0.206785 -0.972847 0.103962
    outer loop
      vertex -6.64981 -20.466 54.5741
      vertex -6.79837 -20.9232 50
      vertex -2.29963 -21.8795 50
    endloop
  endfacet
  facet normal -0.206785 -0.972847 0.103962
    outer loop
      vertex -2.24937 -21.4014 54.5741
      vertex -6.64981 -20.466 54.5741
      vertex -2.29963 -21.8795 50
    endloop
  endfacet
  facet normal 0 -0.994581 0.103962
    outer loop
      vertex -2.24937 -21.4014 54.5741
      vertex -2.29963 -21.8795 50
      vertex 2.29963 -21.8795 50
    endloop
  endfacet
  facet normal 0 -0.994581 0.103962
    outer loop
      vertex 2.24937 -21.4014 54.5741
      vertex -2.24937 -21.4014 54.5741
      vertex 2.29963 -21.8795 50
    endloop
  endfacet
  facet normal 0.206785 -0.972847 0.103962
    outer loop
      vertex 6.79837 -20.9232 50
      vertex 2.24937 -21.4014 54.5741
      vertex 2.29963 -21.8795 50
    endloop
  endfacet
  facet normal 0.206785 -0.972847 0.103962
    outer loop
      vertex 6.64981 -20.466 54.5741
      vertex 2.24937 -21.4014 54.5741
      vertex 6.79837 -20.9232 50
    endloop
  endfacet
  facet normal 0.404533 -0.908595 0.103962
    outer loop
      vertex 11 -19.0526 50
      vertex 6.64981 -20.466 54.5741
      vertex 6.79837 -20.9232 50
    endloop
  endfacet
  facet normal 0.404533 -0.908595 0.103962
    outer loop
      vertex 10.7596 -18.6362 54.5741
      vertex 6.64981 -20.466 54.5741
      vertex 11 -19.0526 50
    endloop
  endfacet
  facet normal 0.5846 -0.804633 0.103962
    outer loop
      vertex 14.7209 -16.3492 50
      vertex 10.7596 -18.6362 54.5741
      vertex 11 -19.0526 50
    endloop
  endfacet
  facet normal 0.5846 -0.804633 0.103962
    outer loop
      vertex 14.3992 -15.9919 54.5741
      vertex 10.7596 -18.6362 54.5741
      vertex 14.7209 -16.3492 50
    endloop
  endfacet
  facet normal 0.739118 -0.665505 0.103962
    outer loop
      vertex 17.7984 -12.9313 50
      vertex 14.3992 -15.9919 54.5741
      vertex 14.7209 -16.3492 50
    endloop
  endfacet
  facet normal 0.739118 -0.665505 0.103962
    outer loop
      vertex 17.4094 -12.6487 54.5741
      vertex 14.3992 -15.9919 54.5741
      vertex 17.7984 -12.9313 50
    endloop
  endfacet
  facet normal 0.861333 -0.497291 0.103962
    outer loop
      vertex 20.098 -8.94821 50
      vertex 17.4094 -12.6487 54.5741
      vertex 17.7984 -12.9313 50
    endloop
  endfacet
  facet normal 0.861333 -0.497291 0.103962
    outer loop
      vertex 19.6588 -8.75267 54.5741
      vertex 17.4094 -12.6487 54.5741
      vertex 20.098 -8.94821 50
    endloop
  endfacet
  facet normal 0.945903 -0.307342 0.103962
    outer loop
      vertex 21.5192 -4.57406 50
      vertex 19.6588 -8.75267 54.5741
      vertex 20.098 -8.94821 50
    endloop
  endfacet
  facet normal 0.945903 -0.307342 0.103962
    outer loop
      vertex 21.049 -4.4741 54.5741
      vertex 19.6588 -8.75267 54.5741
      vertex 21.5192 -4.57406 50
    endloop
  endfacet
  facet normal 0.989133 -0.103962 0.103962
    outer loop
      vertex 22 0 50
      vertex 21.049 -4.4741 54.5741
      vertex 21.5192 -4.57406 50
    endloop
  endfacet
  facet normal 0.989133 -0.103962 0.103962
    outer loop
      vertex 21.5192 0 54.5741
      vertex 21.049 -4.4741 54.5741
      vertex 22 0 50
    endloop
  endfacet
  facet normal 0.989133 0.103962 0.103962
    outer loop
      vertex 21.5192 4.57406 50
      vertex 21.5192 0 54.5741
      vertex 22 0 50
    endloop
  endfacet
  facet normal 0.945903 0.307342 0.103962
    outer loop
      vertex 21.5192 4.57406 50
      vertex 20.098 8.94821 50
      vertex 21.049 4.4741 54.5741
    endloop
  endfacet
  facet normal 0.989133 0.103962 0.103962
    outer loop
      vertex 21.5192 4.57406 50
      vertex 21.049 4.4741 54.5741
      vertex 21.5192 0 54.5741
    endloop
  endfacet
  facet normal 0.861333 0.497291 0.103962
    outer loop
      vertex 20.098 8.94821 50
      vertex 17.7984 12.9313 50
      vertex 19.6588 8.75267 54.5741
    endloop
  endfacet
  facet normal 0.945903 0.307342 0.103962
    outer loop
      vertex 20.098 8.94821 50
      vertex 19.6588 8.75267 54.5741
      vertex 21.049 4.4741 54.5741
    endloop
  endfacet
  facet normal 0.739118 0.665505 0.103962
    outer loop
      vertex 17.7984 12.9313 50
      vertex 14.7209 16.3492 50
      vertex 17.4094 12.6487 54.5741
    endloop
  endfacet
  facet normal 0.861333 0.497291 0.103962
    outer loop
      vertex 17.7984 12.9313 50
      vertex 17.4094 12.6487 54.5741
      vertex 19.6588 8.75267 54.5741
    endloop
  endfacet
  facet normal 0.5846 0.804633 0.103962
    outer loop
      vertex 14.7209 16.3492 50
      vertex 11 19.0526 50
      vertex 14.3992 15.9919 54.5741
    endloop
  endfacet
  facet normal 0.739118 0.665505 0.103962
    outer loop
      vertex 14.7209 16.3492 50
      vertex 14.3992 15.9919 54.5741
      vertex 17.4094 12.6487 54.5741
    endloop
  endfacet
  facet normal 0.404533 0.908595 0.103962
    outer loop
      vertex 11 19.0526 50
      vertex 6.79837 20.9232 50
      vertex 10.7596 18.6362 54.5741
    endloop
  endfacet
  facet normal 0.5846 0.804633 0.103962
    outer loop
      vertex 11 19.0526 50
      vertex 10.7596 18.6362 54.5741
      vertex 14.3992 15.9919 54.5741
    endloop
  endfacet
  facet normal 0.206785 0.972847 0.103962
    outer loop
      vertex 6.79837 20.9232 50
      vertex 2.29963 21.8795 50
      vertex 6.64981 20.466 54.5741
    endloop
  endfacet
  facet normal 0.404533 0.908595 0.103962
    outer loop
      vertex 6.79837 20.9232 50
      vertex 6.64981 20.466 54.5741
      vertex 10.7596 18.6362 54.5741
    endloop
  endfacet
  facet normal 0 0.994581 0.103962
    outer loop
      vertex -2.29963 21.8795 50
      vertex -2.24937 21.4014 54.5741
      vertex 2.29963 21.8795 50
    endloop
  endfacet
  facet normal 0 0.994581 0.103962
    outer loop
      vertex 2.29963 21.8795 50
      vertex -2.24937 21.4014 54.5741
      vertex 2.24937 21.4014 54.5741
    endloop
  endfacet
  facet normal 0.206785 0.972847 0.103962
    outer loop
      vertex 2.29963 21.8795 50
      vertex 2.24937 21.4014 54.5741
      vertex 6.64981 20.466 54.5741
    endloop
  endfacet
  facet normal -0.206785 0.972847 0.103962
    outer loop
      vertex -2.29963 21.8795 50
      vertex -6.79837 20.9232 50
      vertex -2.24937 21.4014 54.5741
    endloop
  endfacet
  facet normal -0.404533 0.908595 0.103962
    outer loop
      vertex -6.79837 20.9232 50
      vertex -11 19.0526 50
      vertex -6.64981 20.466 54.5741
    endloop
  endfacet
  facet normal -0.206785 0.972847 0.103962
    outer loop
      vertex -2.24937 21.4014 54.5741
      vertex -6.79837 20.9232 50
      vertex -6.64981 20.466 54.5741
    endloop
  endfacet
  facet normal -0.5846 0.804633 0.103962
    outer loop
      vertex -11 19.0526 50
      vertex -14.7209 16.3492 50
      vertex -10.7596 18.6362 54.5741
    endloop
  endfacet
  facet normal -0.404533 0.908595 0.103962
    outer loop
      vertex -6.64981 20.466 54.5741
      vertex -11 19.0526 50
      vertex -10.7596 18.6362 54.5741
    endloop
  endfacet
  facet normal -0.739118 0.665505 0.103962
    outer loop
      vertex -14.7209 16.3492 50
      vertex -17.7984 12.9313 50
      vertex -14.3992 15.9919 54.5741
    endloop
  endfacet
  facet normal -0.5846 0.804633 0.103962
    outer loop
      vertex -10.7596 18.6362 54.5741
      vertex -14.7209 16.3492 50
      vertex -14.3992 15.9919 54.5741
    endloop
  endfacet
  facet normal -0.861333 0.497291 0.103962
    outer loop
      vertex -17.7984 12.9313 50
      vertex -20.098 8.94821 50
      vertex -17.4094 12.6487 54.5741
    endloop
  endfacet
  facet normal -0.739118 0.665505 0.103962
    outer loop
      vertex -14.3992 15.9919 54.5741
      vertex -17.7984 12.9313 50
      vertex -17.4094 12.6487 54.5741
    endloop
  endfacet
  facet normal -0.861333 0.497291 0.103962
    outer loop
      vertex -17.4094 12.6487 54.5741
      vertex -20.098 8.94821 50
      vertex -19.6588 8.75267 54.5741
    endloop
  endfacet
  facet normal -0.904981 0.294046 0.307485
    outer loop
      vertex -19.6588 8.75267 54.5741
      vertex -21.049 4.4741 54.5741
      vertex -18.3604 8.17459 58.9482
    endloop
  endfacet
  facet normal -0.904981 0.294046 0.307485
    outer loop
      vertex -18.3604 8.17459 58.9482
      vertex -21.049 4.4741 54.5741
      vertex -19.6588 4.17861 58.9482
    endloop
  endfacet
  facet normal -0.94634 0.0994643 0.307485
    outer loop
      vertex -21.049 4.4741 54.5741
      vertex -21.5192 0 54.5741
      vertex -19.6588 4.17861 58.9482
    endloop
  endfacet
  facet normal -0.824069 0.475777 0.307485
    outer loop
      vertex -17.4094 12.6487 54.5741
      vertex -19.6588 8.75267 54.5741
      vertex -16.2596 11.8133 58.9482
    endloop
  endfacet
  facet normal -0.824069 0.475777 0.307485
    outer loop
      vertex -16.2596 11.8133 58.9482
      vertex -19.6588 8.75267 54.5741
      vertex -18.3604 8.17459 58.9482
    endloop
  endfacet
  facet normal -0.94634 0.0994643 0.307485
    outer loop
      vertex -19.6588 4.17861 58.9482
      vertex -21.5192 0 54.5741
      vertex -20.098 0 58.9482
    endloop
  endfacet
  facet normal -0.94634 -0.0994643 0.307485
    outer loop
      vertex -20.098 0 58.9482
      vertex -21.5192 0 54.5741
      vertex -21.049 -4.4741 54.5741
    endloop
  endfacet
  facet normal -0.94634 -0.0994643 0.307485
    outer loop
      vertex -20.098 0 58.9482
      vertex -21.049 -4.4741 54.5741
      vertex -19.6588 -4.17861 58.9482
    endloop
  endfacet
  facet normal -0.904981 -0.294046 0.307485
    outer loop
      vertex -19.6588 -4.17861 58.9482
      vertex -21.049 -4.4741 54.5741
      vertex -19.6588 -8.75267 54.5741
    endloop
  endfacet
  facet normal -0.904981 -0.294046 0.307485
    outer loop
      vertex -19.6588 -4.17861 58.9482
      vertex -19.6588 -8.75267 54.5741
      vertex -18.3604 -8.17459 58.9482
    endloop
  endfacet
  facet normal -0.824069 -0.475777 0.307485
    outer loop
      vertex -18.3604 -8.17459 58.9482
      vertex -19.6588 -8.75267 54.5741
      vertex -17.4094 -12.6487 54.5741
    endloop
  endfacet
  facet normal -0.824069 -0.475777 0.307485
    outer loop
      vertex -16.2596 -11.8133 58.9482
      vertex -18.3604 -8.17459 58.9482
      vertex -17.4094 -12.6487 54.5741
    endloop
  endfacet
  facet normal -0.707142 -0.636713 0.307485
    outer loop
      vertex -16.2596 -11.8133 58.9482
      vertex -17.4094 -12.6487 54.5741
      vertex -14.3992 -15.9919 54.5741
    endloop
  endfacet
  facet normal -0.707142 -0.636713 0.307485
    outer loop
      vertex -13.4482 -14.9357 58.9482
      vertex -16.2596 -11.8133 58.9482
      vertex -14.3992 -15.9919 54.5741
    endloop
  endfacet
  facet normal -0.559309 -0.769823 0.307485
    outer loop
      vertex -13.4482 -14.9357 58.9482
      vertex -14.3992 -15.9919 54.5741
      vertex -10.7596 -18.6362 54.5741
    endloop
  endfacet
  facet normal -0.559309 -0.769823 0.307485
    outer loop
      vertex -10.049 -17.4054 58.9482
      vertex -13.4482 -14.9357 58.9482
      vertex -10.7596 -18.6362 54.5741
    endloop
  endfacet
  facet normal -0.387031 -0.869287 0.307485
    outer loop
      vertex -10.049 -17.4054 58.9482
      vertex -10.7596 -18.6362 54.5741
      vertex -6.64981 -20.466 54.5741
    endloop
  endfacet
  facet normal -0.387031 -0.869287 0.307485
    outer loop
      vertex -6.21062 -19.1143 58.9482
      vertex -10.049 -17.4054 58.9482
      vertex -6.64981 -20.466 54.5741
    endloop
  endfacet
  facet normal -0.197839 -0.930759 0.307485
    outer loop
      vertex -6.21062 -19.1143 58.9482
      vertex -6.64981 -20.466 54.5741
      vertex -2.24937 -21.4014 54.5741
    endloop
  endfacet
  facet normal -0.197839 -0.930759 0.307485
    outer loop
      vertex -2.10081 -19.9879 58.9482
      vertex -6.21062 -19.1143 58.9482
      vertex -2.24937 -21.4014 54.5741
    endloop
  endfacet
  facet normal 0 -0.951553 0.307485
    outer loop
      vertex -2.10081 -19.9879 58.9482
      vertex -2.24937 -21.4014 54.5741
      vertex 2.24937 -21.4014 54.5741
    endloop
  endfacet
  facet normal 0 -0.951553 0.307485
    outer loop
      vertex 2.10081 -19.9879 58.9482
      vertex -2.10081 -19.9879 58.9482
      vertex 2.24937 -21.4014 54.5741
    endloop
  endfacet
  facet normal 0.197839 -0.930759 0.307485
    outer loop
      vertex 6.64981 -20.466 54.5741
      vertex 2.10081 -19.9879 58.9482
      vertex 2.24937 -21.4014 54.5741
    endloop
  endfacet
  facet normal 0.197839 -0.930759 0.307485
    outer loop
      vertex 6.21062 -19.1143 58.9482
      vertex 2.10081 -19.9879 58.9482
      vertex 6.64981 -20.466 54.5741
    endloop
  endfacet
  facet normal 0.387031 -0.869287 0.307485
    outer loop
      vertex 10.7596 -18.6362 54.5741
      vertex 6.21062 -19.1143 58.9482
      vertex 6.64981 -20.466 54.5741
    endloop
  endfacet
  facet normal 0.387031 -0.869287 0.307485
    outer loop
      vertex 10.049 -17.4054 58.9482
      vertex 6.21062 -19.1143 58.9482
      vertex 10.7596 -18.6362 54.5741
    endloop
  endfacet
  facet normal 0.559309 -0.769823 0.307485
    outer loop
      vertex 14.3992 -15.9919 54.5741
      vertex 10.049 -17.4054 58.9482
      vertex 10.7596 -18.6362 54.5741
    endloop
  endfacet
  facet normal 0.559309 -0.769823 0.307485
    outer loop
      vertex 13.4482 -14.9357 58.9482
      vertex 10.049 -17.4054 58.9482
      vertex 14.3992 -15.9919 54.5741
    endloop
  endfacet
  facet normal 0.707142 -0.636713 0.307485
    outer loop
      vertex 17.4094 -12.6487 54.5741
      vertex 13.4482 -14.9357 58.9482
      vertex 14.3992 -15.9919 54.5741
    endloop
  endfacet
  facet normal 0.707142 -0.636713 0.307485
    outer loop
      vertex 16.2596 -11.8133 58.9482
      vertex 13.4482 -14.9357 58.9482
      vertex 17.4094 -12.6487 54.5741
    endloop
  endfacet
  facet normal 0.824069 -0.475777 0.307485
    outer loop
      vertex 19.6588 -8.75267 54.5741
      vertex 16.2596 -11.8133 58.9482
      vertex 17.4094 -12.6487 54.5741
    endloop
  endfacet
  facet normal 0.824069 -0.475777 0.307485
    outer loop
      vertex 18.3604 -8.17459 58.9482
      vertex 16.2596 -11.8133 58.9482
      vertex 19.6588 -8.75267 54.5741
    endloop
  endfacet
  facet normal 0.904981 -0.294046 0.307485
    outer loop
      vertex 21.049 -4.4741 54.5741
      vertex 18.3604 -8.17459 58.9482
      vertex 19.6588 -8.75267 54.5741
    endloop
  endfacet
  facet normal 0.904981 -0.294046 0.307485
    outer loop
      vertex 19.6588 -4.17861 58.9482
      vertex 18.3604 -8.17459 58.9482
      vertex 21.049 -4.4741 54.5741
    endloop
  endfacet
  facet normal 0.94634 -0.0994643 0.307485
    outer loop
      vertex 21.5192 0 54.5741
      vertex 19.6588 -4.17861 58.9482
      vertex 21.049 -4.4741 54.5741
    endloop
  endfacet
  facet normal 0.94634 -0.0994643 0.307485
    outer loop
      vertex 20.098 0 58.9482
      vertex 19.6588 -4.17861 58.9482
      vertex 21.5192 0 54.5741
    endloop
  endfacet
  facet normal 0.94634 0.0994643 0.307485
    outer loop
      vertex 21.049 4.4741 54.5741
      vertex 20.098 0 58.9482
      vertex 21.5192 0 54.5741
    endloop
  endfacet
  facet normal 0.94634 0.0994643 0.307485
    outer loop
      vertex 21.049 4.4741 54.5741
      vertex 19.6588 4.17861 58.9482
      vertex 20.098 0 58.9482
    endloop
  endfacet
  facet normal 0.904981 0.294046 0.307485
    outer loop
      vertex 19.6588 8.75267 54.5741
      vertex 19.6588 4.17861 58.9482
      vertex 21.049 4.4741 54.5741
    endloop
  endfacet
  facet normal 0.904981 0.294046 0.307485
    outer loop
      vertex 19.6588 8.75267 54.5741
      vertex 18.3604 8.17459 58.9482
      vertex 19.6588 4.17861 58.9482
    endloop
  endfacet
  facet normal 0.824069 0.475777 0.307485
    outer loop
      vertex 19.6588 8.75267 54.5741
      vertex 17.4094 12.6487 54.5741
      vertex 18.3604 8.17459 58.9482
    endloop
  endfacet
  facet normal 0.824069 0.475777 0.307485
    outer loop
      vertex 17.4094 12.6487 54.5741
      vertex 16.2596 11.8133 58.9482
      vertex 18.3604 8.17459 58.9482
    endloop
  endfacet
  facet normal 0.707142 0.636713 0.307485
    outer loop
      vertex 17.4094 12.6487 54.5741
      vertex 14.3992 15.9919 54.5741
      vertex 16.2596 11.8133 58.9482
    endloop
  endfacet
  facet normal 0.707142 0.636713 0.307485
    outer loop
      vertex 14.3992 15.9919 54.5741
      vertex 13.4482 14.9357 58.9482
      vertex 16.2596 11.8133 58.9482
    endloop
  endfacet
  facet normal 0.559309 0.769823 0.307485
    outer loop
      vertex 14.3992 15.9919 54.5741
      vertex 10.7596 18.6362 54.5741
      vertex 13.4482 14.9357 58.9482
    endloop
  endfacet
  facet normal 0.559309 0.769823 0.307485
    outer loop
      vertex 10.7596 18.6362 54.5741
      vertex 10.049 17.4054 58.9482
      vertex 13.4482 14.9357 58.9482
    endloop
  endfacet
  facet normal 0.387031 0.869287 0.307485
    outer loop
      vertex 10.7596 18.6362 54.5741
      vertex 6.64981 20.466 54.5741
      vertex 10.049 17.4054 58.9482
    endloop
  endfacet
  facet normal 0.387031 0.869287 0.307485
    outer loop
      vertex 6.64981 20.466 54.5741
      vertex 6.21062 19.1143 58.9482
      vertex 10.049 17.4054 58.9482
    endloop
  endfacet
  facet normal 0.197839 0.930759 0.307485
    outer loop
      vertex 6.64981 20.466 54.5741
      vertex 2.24937 21.4014 54.5741
      vertex 6.21062 19.1143 58.9482
    endloop
  endfacet
  facet normal 0.197839 0.930759 0.307485
    outer loop
      vertex 2.24937 21.4014 54.5741
      vertex 2.10081 19.9879 58.9482
      vertex 6.21062 19.1143 58.9482
    endloop
  endfacet
  facet normal 0 0.951553 0.307485
    outer loop
      vertex -2.24937 21.4014 54.5741
      vertex -2.10081 19.9879 58.9482
      vertex 2.24937 21.4014 54.5741
    endloop
  endfacet
  facet normal 0 0.951553 0.307485
    outer loop
      vertex 2.24937 21.4014 54.5741
      vertex -2.10081 19.9879 58.9482
      vertex 2.10081 19.9879 58.9482
    endloop
  endfacet
  facet normal -0.197839 0.930759 0.307485
    outer loop
      vertex -2.24937 21.4014 54.5741
      vertex -6.64981 20.466 54.5741
      vertex -2.10081 19.9879 58.9482
    endloop
  endfacet
  facet normal -0.197839 0.930759 0.307485
    outer loop
      vertex -2.10081 19.9879 58.9482
      vertex -6.64981 20.466 54.5741
      vertex -6.21062 19.1143 58.9482
    endloop
  endfacet
  facet normal -0.387031 0.869287 0.307485
    outer loop
      vertex -6.64981 20.466 54.5741
      vertex -10.7596 18.6362 54.5741
      vertex -6.21062 19.1143 58.9482
    endloop
  endfacet
  facet normal -0.387031 0.869287 0.307485
    outer loop
      vertex -6.21062 19.1143 58.9482
      vertex -10.7596 18.6362 54.5741
      vertex -10.049 17.4054 58.9482
    endloop
  endfacet
  facet normal -0.559309 0.769823 0.307485
    outer loop
      vertex -10.7596 18.6362 54.5741
      vertex -14.3992 15.9919 54.5741
      vertex -10.049 17.4054 58.9482
    endloop
  endfacet
  facet normal -0.559309 0.769823 0.307485
    outer loop
      vertex -10.049 17.4054 58.9482
      vertex -14.3992 15.9919 54.5741
      vertex -13.4482 14.9357 58.9482
    endloop
  endfacet
  facet normal -0.707142 0.636713 0.307485
    outer loop
      vertex -14.3992 15.9919 54.5741
      vertex -17.4094 12.6487 54.5741
      vertex -13.4482 14.9357 58.9482
    endloop
  endfacet
  facet normal -0.707142 0.636713 0.307485
    outer loop
      vertex -13.4482 14.9357 58.9482
      vertex -17.4094 12.6487 54.5741
      vertex -16.2596 11.8133 58.9482
    endloop
  endfacet
  facet normal -0.751026 0.433605 0.497941
    outer loop
      vertex -16.2596 11.8133 58.9482
      vertex -18.3604 8.17459 58.9482
      vertex -14.3992 10.4616 62.9313
    endloop
  endfacet
  facet normal -0.751026 0.433605 0.497941
    outer loop
      vertex -14.3992 10.4616 62.9313
      vertex -18.3604 8.17459 58.9482
      vertex -16.2596 7.23925 62.9313
    endloop
  endfacet
  facet normal -0.824766 0.267983 0.497941
    outer loop
      vertex -18.3604 8.17459 58.9482
      vertex -19.6588 4.17861 58.9482
      vertex -16.2596 7.23925 62.9313
    endloop
  endfacet
  facet normal -0.824766 0.267983 0.497941
    outer loop
      vertex -16.2596 7.23925 62.9313
      vertex -19.6588 4.17861 58.9482
      vertex -17.4094 3.70049 62.9313
    endloop
  endfacet
  facet normal -0.86246 0.0906481 0.497941
    outer loop
      vertex -19.6588 4.17861 58.9482
      vertex -20.098 0 58.9482
      vertex -17.4094 3.70049 62.9313
    endloop
  endfacet
  facet normal -0.644463 0.580277 0.497941
    outer loop
      vertex -13.4482 14.9357 58.9482
      vertex -16.2596 11.8133 58.9482
      vertex -11.9094 13.2268 62.9313
    endloop
  endfacet
  facet normal -0.644463 0.580277 0.497941
    outer loop
      vertex -11.9094 13.2268 62.9313
      vertex -16.2596 11.8133 58.9482
      vertex -14.3992 10.4616 62.9313
    endloop
  endfacet
  facet normal -0.86246 0.0906482 0.497941
    outer loop
      vertex -17.4094 3.70049 62.9313
      vertex -20.098 0 58.9482
      vertex -17.7984 0 62.9313
    endloop
  endfacet
  facet normal -0.86246 -0.0906481 0.497941
    outer loop
      vertex -17.7984 0 62.9313
      vertex -20.098 0 58.9482
      vertex -19.6588 -4.17861 58.9482
    endloop
  endfacet
  facet normal -0.86246 -0.0906482 0.497941
    outer loop
      vertex -17.7984 0 62.9313
      vertex -19.6588 -4.17861 58.9482
      vertex -17.4094 -3.70049 62.9313
    endloop
  endfacet
  facet normal -0.824766 -0.267983 0.497941
    outer loop
      vertex -17.4094 -3.70049 62.9313
      vertex -19.6588 -4.17861 58.9482
      vertex -18.3604 -8.17459 58.9482
    endloop
  endfacet
  facet normal -0.824766 -0.267983 0.497941
    outer loop
      vertex -17.4094 -3.70049 62.9313
      vertex -18.3604 -8.17459 58.9482
      vertex -16.2596 -7.23925 62.9313
    endloop
  endfacet
  facet normal -0.751026 -0.433605 0.497941
    outer loop
      vertex -16.2596 -7.23925 62.9313
      vertex -18.3604 -8.17459 58.9482
      vertex -16.2596 -11.8133 58.9482
    endloop
  endfacet
  facet normal -0.751026 -0.433605 0.497941
    outer loop
      vertex -16.2596 -7.23925 62.9313
      vertex -16.2596 -11.8133 58.9482
      vertex -14.3992 -10.4616 62.9313
    endloop
  endfacet
  facet normal -0.644463 -0.580277 0.497941
    outer loop
      vertex -14.3992 -10.4616 62.9313
      vertex -16.2596 -11.8133 58.9482
      vertex -13.4482 -14.9357 58.9482
    endloop
  endfacet
  facet normal -0.644463 -0.580277 0.497941
    outer loop
      vertex -11.9094 -13.2268 62.9313
      vertex -14.3992 -10.4616 62.9313
      vertex -13.4482 -14.9357 58.9482
    endloop
  endfacet
  facet normal -0.509734 -0.701588 0.497941
    outer loop
      vertex -11.9094 -13.2268 62.9313
      vertex -13.4482 -14.9357 58.9482
      vertex -10.049 -17.4054 58.9482
    endloop
  endfacet
  facet normal -0.509734 -0.701588 0.497941
    outer loop
      vertex -8.89919 -15.4138 62.9313
      vertex -11.9094 -13.2268 62.9313
      vertex -10.049 -17.4054 58.9482
    endloop
  endfacet
  facet normal -0.352726 -0.792236 0.497941
    outer loop
      vertex -8.89919 -15.4138 62.9313
      vertex -10.049 -17.4054 58.9482
      vertex -6.21062 -19.1143 58.9482
    endloop
  endfacet
  facet normal -0.352726 -0.792236 0.497942
    outer loop
      vertex -5.5 -16.9273 62.9313
      vertex -8.89919 -15.4138 62.9313
      vertex -6.21062 -19.1143 58.9482
    endloop
  endfacet
  facet normal -0.180303 -0.84826 0.497942
    outer loop
      vertex -5.5 -16.9273 62.9313
      vertex -6.21062 -19.1143 58.9482
      vertex -2.10081 -19.9879 58.9482
    endloop
  endfacet
  facet normal -0.180303 -0.84826 0.497941
    outer loop
      vertex -1.86044 -17.7009 62.9313
      vertex -5.5 -16.9273 62.9313
      vertex -2.10081 -19.9879 58.9482
    endloop
  endfacet
  facet normal 0 -0.867211 0.497941
    outer loop
      vertex -1.86044 -17.7009 62.9313
      vertex -2.10081 -19.9879 58.9482
      vertex 2.10081 -19.9879 58.9482
    endloop
  endfacet
  facet normal 0 -0.867211 0.497941
    outer loop
      vertex 1.86044 -17.7009 62.9313
      vertex -1.86044 -17.7009 62.9313
      vertex 2.10081 -19.9879 58.9482
    endloop
  endfacet
  facet normal 0.180303 -0.84826 0.497941
    outer loop
      vertex 6.21062 -19.1143 58.9482
      vertex 1.86044 -17.7009 62.9313
      vertex 2.10081 -19.9879 58.9482
    endloop
  endfacet
  facet normal 0.180303 -0.84826 0.497942
    outer loop
      vertex 5.5 -16.9273 62.9313
      vertex 1.86044 -17.7009 62.9313
      vertex 6.21062 -19.1143 58.9482
    endloop
  endfacet
  facet normal 0.352726 -0.792236 0.497942
    outer loop
      vertex 10.049 -17.4054 58.9482
      vertex 5.5 -16.9273 62.9313
      vertex 6.21062 -19.1143 58.9482
    endloop
  endfacet
  facet normal 0.352726 -0.792236 0.497941
    outer loop
      vertex 8.89919 -15.4138 62.9313
      vertex 5.5 -16.9273 62.9313
      vertex 10.049 -17.4054 58.9482
    endloop
  endfacet
  facet normal 0.509734 -0.701588 0.497941
    outer loop
      vertex 13.4482 -14.9357 58.9482
      vertex 8.89919 -15.4138 62.9313
      vertex 10.049 -17.4054 58.9482
    endloop
  endfacet
  facet normal 0.509734 -0.701588 0.497942
    outer loop
      vertex 11.9094 -13.2268 62.9313
      vertex 8.89919 -15.4138 62.9313
      vertex 13.4482 -14.9357 58.9482
    endloop
  endfacet
  facet normal 0.644463 -0.580277 0.497941
    outer loop
      vertex 16.2596 -11.8133 58.9482
      vertex 11.9094 -13.2268 62.9313
      vertex 13.4482 -14.9357 58.9482
    endloop
  endfacet
  facet normal 0.644463 -0.580277 0.497941
    outer loop
      vertex 14.3992 -10.4616 62.9313
      vertex 11.9094 -13.2268 62.9313
      vertex 16.2596 -11.8133 58.9482
    endloop
  endfacet
  facet normal 0.751026 -0.433605 0.497941
    outer loop
      vertex 18.3604 -8.17459 58.9482
      vertex 14.3992 -10.4616 62.9313
      vertex 16.2596 -11.8133 58.9482
    endloop
  endfacet
  facet normal 0.751026 -0.433605 0.497941
    outer loop
      vertex 16.2596 -7.23925 62.9313
      vertex 14.3992 -10.4616 62.9313
      vertex 18.3604 -8.17459 58.9482
    endloop
  endfacet
  facet normal 0.824766 -0.267983 0.497941
    outer loop
      vertex 19.6588 -4.17861 58.9482
      vertex 16.2596 -7.23925 62.9313
      vertex 18.3604 -8.17459 58.9482
    endloop
  endfacet
  facet normal 0.824766 -0.267983 0.497941
    outer loop
      vertex 17.4094 -3.70049 62.9313
      vertex 16.2596 -7.23925 62.9313
      vertex 19.6588 -4.17861 58.9482
    endloop
  endfacet
  facet normal 0.86246 -0.0906481 0.497941
    outer loop
      vertex 20.098 0 58.9482
      vertex 17.4094 -3.70049 62.9313
      vertex 19.6588 -4.17861 58.9482
    endloop
  endfacet
  facet normal 0.86246 -0.0906482 0.497941
    outer loop
      vertex 17.7984 0 62.9313
      vertex 17.4094 -3.70049 62.9313
      vertex 20.098 0 58.9482
    endloop
  endfacet
  facet normal 0.86246 0.0906481 0.497941
    outer loop
      vertex 19.6588 4.17861 58.9482
      vertex 17.7984 0 62.9313
      vertex 20.098 0 58.9482
    endloop
  endfacet
  facet normal 0.86246 0.0906482 0.497941
    outer loop
      vertex 19.6588 4.17861 58.9482
      vertex 17.4094 3.70049 62.9313
      vertex 17.7984 0 62.9313
    endloop
  endfacet
  facet normal 0.824766 0.267983 0.497941
    outer loop
      vertex 18.3604 8.17459 58.9482
      vertex 17.4094 3.70049 62.9313
      vertex 19.6588 4.17861 58.9482
    endloop
  endfacet
  facet normal 0.824766 0.267983 0.497941
    outer loop
      vertex 18.3604 8.17459 58.9482
      vertex 16.2596 7.23925 62.9313
      vertex 17.4094 3.70049 62.9313
    endloop
  endfacet
  facet normal 0.751026 0.433605 0.497941
    outer loop
      vertex 16.2596 11.8133 58.9482
      vertex 16.2596 7.23925 62.9313
      vertex 18.3604 8.17459 58.9482
    endloop
  endfacet
  facet normal 0.751026 0.433605 0.497941
    outer loop
      vertex 16.2596 11.8133 58.9482
      vertex 14.3992 10.4616 62.9313
      vertex 16.2596 7.23925 62.9313
    endloop
  endfacet
  facet normal 0.644463 0.580277 0.497941
    outer loop
      vertex 16.2596 11.8133 58.9482
      vertex 13.4482 14.9357 58.9482
      vertex 14.3992 10.4616 62.9313
    endloop
  endfacet
  facet normal 0.644463 0.580277 0.497941
    outer loop
      vertex 13.4482 14.9357 58.9482
      vertex 11.9094 13.2268 62.9313
      vertex 14.3992 10.4616 62.9313
    endloop
  endfacet
  facet normal 0.509734 0.701588 0.497941
    outer loop
      vertex 13.4482 14.9357 58.9482
      vertex 10.049 17.4054 58.9482
      vertex 11.9094 13.2268 62.9313
    endloop
  endfacet
  facet normal 0.509734 0.701588 0.497941
    outer loop
      vertex 10.049 17.4054 58.9482
      vertex 8.89919 15.4138 62.9313
      vertex 11.9094 13.2268 62.9313
    endloop
  endfacet
  facet normal 0.352726 0.792236 0.497941
    outer loop
      vertex 10.049 17.4054 58.9482
      vertex 6.21062 19.1143 58.9482
      vertex 8.89919 15.4138 62.9313
    endloop
  endfacet
  facet normal 0.352726 0.792236 0.497942
    outer loop
      vertex 6.21062 19.1143 58.9482
      vertex 5.5 16.9273 62.9313
      vertex 8.89919 15.4138 62.9313
    endloop
  endfacet
  facet normal 0.180303 0.84826 0.497942
    outer loop
      vertex 6.21062 19.1143 58.9482
      vertex 2.10081 19.9879 58.9482
      vertex 5.5 16.9273 62.9313
    endloop
  endfacet
  facet normal 0.180303 0.84826 0.497941
    outer loop
      vertex 2.10081 19.9879 58.9482
      vertex 1.86044 17.7009 62.9313
      vertex 5.5 16.9273 62.9313
    endloop
  endfacet
  facet normal 0 0.867211 0.497941
    outer loop
      vertex -2.10081 19.9879 58.9482
      vertex -1.86044 17.7009 62.9313
      vertex 2.10081 19.9879 58.9482
    endloop
  endfacet
  facet normal 0 0.867211 0.497941
    outer loop
      vertex 2.10081 19.9879 58.9482
      vertex -1.86044 17.7009 62.9313
      vertex 1.86044 17.7009 62.9313
    endloop
  endfacet
  facet normal -0.180303 0.84826 0.497941
    outer loop
      vertex -2.10081 19.9879 58.9482
      vertex -6.21062 19.1143 58.9482
      vertex -1.86044 17.7009 62.9313
    endloop
  endfacet
  facet normal -0.180303 0.84826 0.497942
    outer loop
      vertex -1.86044 17.7009 62.9313
      vertex -6.21062 19.1143 58.9482
      vertex -5.5 16.9273 62.9313
    endloop
  endfacet
  facet normal -0.352726 0.792236 0.497942
    outer loop
      vertex -6.21062 19.1143 58.9482
      vertex -10.049 17.4054 58.9482
      vertex -5.5 16.9273 62.9313
    endloop
  endfacet
  facet normal -0.352726 0.792236 0.497941
    outer loop
      vertex -5.5 16.9273 62.9313
      vertex -10.049 17.4054 58.9482
      vertex -8.89919 15.4138 62.9313
    endloop
  endfacet
  facet normal -0.509734 0.701588 0.497941
    outer loop
      vertex -10.049 17.4054 58.9482
      vertex -13.4482 14.9357 58.9482
      vertex -8.89919 15.4138 62.9313
    endloop
  endfacet
  facet normal -0.509734 0.701588 0.497942
    outer loop
      vertex -8.89919 15.4138 62.9313
      vertex -13.4482 14.9357 58.9482
      vertex -11.9094 13.2268 62.9313
    endloop
  endfacet
  facet normal -0.55362 0.498482 0.667099
    outer loop
      vertex -11.9094 13.2268 62.9313
      vertex -14.3992 10.4616 62.9313
      vertex -9.85019 10.9397 66.3492
    endloop
  endfacet
  facet normal -0.55362 0.498482 0.667099
    outer loop
      vertex -9.85019 10.9397 66.3492
      vertex -14.3992 10.4616 62.9313
      vertex -11.9094 8.65271 66.3492
    endloop
  endfacet
  facet normal -0.645162 0.372485 0.667099
    outer loop
      vertex -14.3992 10.4616 62.9313
      vertex -16.2596 7.23925 62.9313
      vertex -11.9094 8.65271 66.3492
    endloop
  endfacet
  facet normal -0.645162 0.372485 0.667099
    outer loop
      vertex -11.9094 8.65271 66.3492
      vertex -16.2596 7.23925 62.9313
      vertex -13.4482 5.98752 66.3492
    endloop
  endfacet
  facet normal -0.708508 0.230208 0.667099
    outer loop
      vertex -16.2596 7.23925 62.9313
      vertex -17.4094 3.70049 62.9313
      vertex -13.4482 5.98752 66.3492
    endloop
  endfacet
  facet normal -0.708508 0.230208 0.667099
    outer loop
      vertex -13.4482 5.98752 66.3492
      vertex -17.4094 3.70049 62.9313
      vertex -14.3992 3.06064 66.3492
    endloop
  endfacet
  facet normal -0.740888 0.0778705 0.667099
    outer loop
      vertex -17.4094 3.70049 62.9313
      vertex -17.7984 0 62.9313
      vertex -14.3992 3.06064 66.3492
    endloop
  endfacet
  facet normal -0.437882 0.602693 0.667099
    outer loop
      vertex -8.89919 15.4138 62.9313
      vertex -11.9094 13.2268 62.9313
      vertex -7.36044 12.7486 66.3492
    endloop
  endfacet
  facet normal -0.437882 0.602693 0.667099
    outer loop
      vertex -7.36044 12.7486 66.3492
      vertex -11.9094 13.2268 62.9313
      vertex -9.85019 10.9397 66.3492
    endloop
  endfacet
  facet normal -0.740888 0.0778704 0.667099
    outer loop
      vertex -14.3992 3.06064 66.3492
      vertex -17.7984 0 62.9313
      vertex -14.7209 0 66.3492
    endloop
  endfacet
  facet normal -0.740888 -0.0778704 0.667099
    outer loop
      vertex -14.7209 0 66.3492
      vertex -17.7984 0 62.9313
      vertex -17.4094 -3.70049 62.9313
    endloop
  endfacet
  facet normal -0.740888 -0.0778704 0.667099
    outer loop
      vertex -14.7209 0 66.3492
      vertex -17.4094 -3.70049 62.9313
      vertex -14.3992 -3.06064 66.3492
    endloop
  endfacet
  facet normal -0.708508 -0.230208 0.667099
    outer loop
      vertex -14.3992 -3.06064 66.3492
      vertex -17.4094 -3.70049 62.9313
      vertex -16.2596 -7.23925 62.9313
    endloop
  endfacet
  facet normal -0.708508 -0.230208 0.667099
    outer loop
      vertex -14.3992 -3.06064 66.3492
      vertex -16.2596 -7.23925 62.9313
      vertex -13.4482 -5.98752 66.3492
    endloop
  endfacet
  facet normal -0.645162 -0.372485 0.667099
    outer loop
      vertex -13.4482 -5.98752 66.3492
      vertex -16.2596 -7.23925 62.9313
      vertex -14.3992 -10.4616 62.9313
    endloop
  endfacet
  facet normal -0.645162 -0.372485 0.667099
    outer loop
      vertex -13.4482 -5.98752 66.3492
      vertex -14.3992 -10.4616 62.9313
      vertex -11.9094 -8.65271 66.3492
    endloop
  endfacet
  facet normal -0.55362 -0.498482 0.667099
    outer loop
      vertex -11.9094 -8.65271 66.3492
      vertex -14.3992 -10.4616 62.9313
      vertex -11.9094 -13.2268 62.9313
    endloop
  endfacet
  facet normal -0.55362 -0.498482 0.667099
    outer loop
      vertex -11.9094 -8.65271 66.3492
      vertex -11.9094 -13.2268 62.9313
      vertex -9.85019 -10.9397 66.3492
    endloop
  endfacet
  facet normal -0.437882 -0.602693 0.667099
    outer loop
      vertex -9.85019 -10.9397 66.3492
      vertex -11.9094 -13.2268 62.9313
      vertex -8.89919 -15.4138 62.9313
    endloop
  endfacet
  facet normal -0.437882 -0.602693 0.667099
    outer loop
      vertex -7.36044 -12.7486 66.3492
      vertex -9.85019 -10.9397 66.3492
      vertex -8.89919 -15.4138 62.9313
    endloop
  endfacet
  facet normal -0.303006 -0.680563 0.667099
    outer loop
      vertex -7.36044 -12.7486 66.3492
      vertex -8.89919 -15.4138 62.9313
      vertex -5.5 -16.9273 62.9313
    endloop
  endfacet
  facet normal -0.303006 -0.680563 0.667099
    outer loop
      vertex -4.549 -14.0004 66.3492
      vertex -7.36044 -12.7486 66.3492
      vertex -5.5 -16.9273 62.9313
    endloop
  endfacet
  facet normal -0.154888 -0.72869 0.667099
    outer loop
      vertex -4.549 -14.0004 66.3492
      vertex -5.5 -16.9273 62.9313
      vertex -1.86044 -17.7009 62.9313
    endloop
  endfacet
  facet normal -0.154888 -0.72869 0.667099
    outer loop
      vertex -1.53875 -14.6402 66.3492
      vertex -4.549 -14.0004 66.3492
      vertex -1.86044 -17.7009 62.9313
    endloop
  endfacet
  facet normal 0 -0.744969 0.667099
    outer loop
      vertex -1.53875 -14.6402 66.3492
      vertex -1.86044 -17.7009 62.9313
      vertex 1.86044 -17.7009 62.9313
    endloop
  endfacet
  facet normal 0 -0.744969 0.667099
    outer loop
      vertex 1.53875 -14.6402 66.3492
      vertex -1.53875 -14.6402 66.3492
      vertex 1.86044 -17.7009 62.9313
    endloop
  endfacet
  facet normal 0.154888 -0.72869 0.667099
    outer loop
      vertex 5.5 -16.9273 62.9313
      vertex 1.53875 -14.6402 66.3492
      vertex 1.86044 -17.7009 62.9313
    endloop
  endfacet
  facet normal 0.154888 -0.72869 0.667099
    outer loop
      vertex 4.549 -14.0004 66.3492
      vertex 1.53875 -14.6402 66.3492
      vertex 5.5 -16.9273 62.9313
    endloop
  endfacet
  facet normal 0.303006 -0.680563 0.667099
    outer loop
      vertex 8.89919 -15.4138 62.9313
      vertex 4.549 -14.0004 66.3492
      vertex 5.5 -16.9273 62.9313
    endloop
  endfacet
  facet normal 0.303006 -0.680563 0.667099
    outer loop
      vertex 7.36044 -12.7486 66.3492
      vertex 4.549 -14.0004 66.3492
      vertex 8.89919 -15.4138 62.9313
    endloop
  endfacet
  facet normal 0.437882 -0.602693 0.667099
    outer loop
      vertex 11.9094 -13.2268 62.9313
      vertex 7.36044 -12.7486 66.3492
      vertex 8.89919 -15.4138 62.9313
    endloop
  endfacet
  facet normal 0.437882 -0.602693 0.667099
    outer loop
      vertex 9.85019 -10.9397 66.3492
      vertex 7.36044 -12.7486 66.3492
      vertex 11.9094 -13.2268 62.9313
    endloop
  endfacet
  facet normal 0.55362 -0.498482 0.667099
    outer loop
      vertex 14.3992 -10.4616 62.9313
      vertex 9.85019 -10.9397 66.3492
      vertex 11.9094 -13.2268 62.9313
    endloop
  endfacet
  facet normal 0.55362 -0.498482 0.667099
    outer loop
      vertex 11.9094 -8.65271 66.3492
      vertex 9.85019 -10.9397 66.3492
      vertex 14.3992 -10.4616 62.9313
    endloop
  endfacet
  facet normal 0.645162 -0.372485 0.667099
    outer loop
      vertex 16.2596 -7.23925 62.9313
      vertex 11.9094 -8.65271 66.3492
      vertex 14.3992 -10.4616 62.9313
    endloop
  endfacet
  facet normal 0.645162 -0.372485 0.667099
    outer loop
      vertex 13.4482 -5.98752 66.3492
      vertex 11.9094 -8.65271 66.3492
      vertex 16.2596 -7.23925 62.9313
    endloop
  endfacet
  facet normal 0.708508 -0.230208 0.667099
    outer loop
      vertex 17.4094 -3.70049 62.9313
      vertex 13.4482 -5.98752 66.3492
      vertex 16.2596 -7.23925 62.9313
    endloop
  endfacet
  facet normal 0.708508 -0.230208 0.667099
    outer loop
      vertex 14.3992 -3.06064 66.3492
      vertex 13.4482 -5.98752 66.3492
      vertex 17.4094 -3.70049 62.9313
    endloop
  endfacet
  facet normal 0.740888 -0.0778705 0.667099
    outer loop
      vertex 17.7984 0 62.9313
      vertex 14.3992 -3.06064 66.3492
      vertex 17.4094 -3.70049 62.9313
    endloop
  endfacet
  facet normal 0.740888 -0.0778704 0.667099
    outer loop
      vertex 14.7209 0 66.3492
      vertex 14.3992 -3.06064 66.3492
      vertex 17.7984 0 62.9313
    endloop
  endfacet
  facet normal 0.740888 0.0778704 0.667099
    outer loop
      vertex 17.4094 3.70049 62.9313
      vertex 14.7209 0 66.3492
      vertex 17.7984 0 62.9313
    endloop
  endfacet
  facet normal 0.740888 0.0778704 0.667099
    outer loop
      vertex 17.4094 3.70049 62.9313
      vertex 14.3992 3.06064 66.3492
      vertex 14.7209 0 66.3492
    endloop
  endfacet
  facet normal 0.708508 0.230208 0.667099
    outer loop
      vertex 16.2596 7.23925 62.9313
      vertex 14.3992 3.06064 66.3492
      vertex 17.4094 3.70049 62.9313
    endloop
  endfacet
  facet normal 0.708508 0.230208 0.667099
    outer loop
      vertex 16.2596 7.23925 62.9313
      vertex 13.4482 5.98752 66.3492
      vertex 14.3992 3.06064 66.3492
    endloop
  endfacet
  facet normal 0.645162 0.372485 0.667099
    outer loop
      vertex 14.3992 10.4616 62.9313
      vertex 13.4482 5.98752 66.3492
      vertex 16.2596 7.23925 62.9313
    endloop
  endfacet
  facet normal 0.645162 0.372485 0.667099
    outer loop
      vertex 14.3992 10.4616 62.9313
      vertex 11.9094 8.65271 66.3492
      vertex 13.4482 5.98752 66.3492
    endloop
  endfacet
  facet normal 0.55362 0.498482 0.667099
    outer loop
      vertex 11.9094 13.2268 62.9313
      vertex 11.9094 8.65271 66.3492
      vertex 14.3992 10.4616 62.9313
    endloop
  endfacet
  facet normal 0.55362 0.498482 0.667099
    outer loop
      vertex 11.9094 13.2268 62.9313
      vertex 9.85019 10.9397 66.3492
      vertex 11.9094 8.65271 66.3492
    endloop
  endfacet
  facet normal 0.437882 0.602693 0.667099
    outer loop
      vertex 11.9094 13.2268 62.9313
      vertex 8.89919 15.4138 62.9313
      vertex 9.85019 10.9397 66.3492
    endloop
  endfacet
  facet normal 0.437882 0.602693 0.667099
    outer loop
      vertex 8.89919 15.4138 62.9313
      vertex 7.36044 12.7486 66.3492
      vertex 9.85019 10.9397 66.3492
    endloop
  endfacet
  facet normal 0.303006 0.680563 0.667099
    outer loop
      vertex 8.89919 15.4138 62.9313
      vertex 5.5 16.9273 62.9313
      vertex 7.36044 12.7486 66.3492
    endloop
  endfacet
  facet normal 0.303006 0.680563 0.667099
    outer loop
      vertex 5.5 16.9273 62.9313
      vertex 4.549 14.0004 66.3492
      vertex 7.36044 12.7486 66.3492
    endloop
  endfacet
  facet normal 0.154888 0.72869 0.667099
    outer loop
      vertex 5.5 16.9273 62.9313
      vertex 1.86044 17.7009 62.9313
      vertex 4.549 14.0004 66.3492
    endloop
  endfacet
  facet normal 0.154888 0.72869 0.667099
    outer loop
      vertex 1.86044 17.7009 62.9313
      vertex 1.53875 14.6402 66.3492
      vertex 4.549 14.0004 66.3492
    endloop
  endfacet
  facet normal 0 0.744969 0.667099
    outer loop
      vertex -1.86044 17.7009 62.9313
      vertex -1.53875 14.6402 66.3492
      vertex 1.86044 17.7009 62.9313
    endloop
  endfacet
  facet normal 0 0.744969 0.667099
    outer loop
      vertex 1.86044 17.7009 62.9313
      vertex -1.53875 14.6402 66.3492
      vertex 1.53875 14.6402 66.3492
    endloop
  endfacet
  facet normal -0.154888 0.72869 0.667099
    outer loop
      vertex -1.86044 17.7009 62.9313
      vertex -5.5 16.9273 62.9313
      vertex -1.53875 14.6402 66.3492
    endloop
  endfacet
  facet normal -0.154888 0.72869 0.667099
    outer loop
      vertex -1.53875 14.6402 66.3492
      vertex -5.5 16.9273 62.9313
      vertex -4.549 14.0004 66.3492
    endloop
  endfacet
  facet normal -0.303006 0.680563 0.667099
    outer loop
      vertex -5.5 16.9273 62.9313
      vertex -8.89919 15.4138 62.9313
      vertex -4.549 14.0004 66.3492
    endloop
  endfacet
  facet normal -0.303006 0.680563 0.667099
    outer loop
      vertex -4.549 14.0004 66.3492
      vertex -8.89919 15.4138 62.9313
      vertex -7.36044 12.7486 66.3492
    endloop
  endfacet
  facet normal -0.346733 0.477238 0.807478
    outer loop
      vertex -7.36044 12.7486 66.3492
      vertex -9.85019 10.9397 66.3492
      vertex -5.5 9.52628 69.0526
    endloop
  endfacet
  facet normal -0.346733 0.477238 0.807478
    outer loop
      vertex -5.5 9.52628 69.0526
      vertex -9.85019 10.9397 66.3492
      vertex -7.36044 8.17459 69.0526
    endloop
  endfacet
  facet normal -0.43838 0.394719 0.807478
    outer loop
      vertex -9.85019 10.9397 66.3492
      vertex -11.9094 8.65271 66.3492
      vertex -7.36044 8.17459 69.0526
    endloop
  endfacet
  facet normal -0.43838 0.394719 0.807478
    outer loop
      vertex -7.36044 8.17459 69.0526
      vertex -11.9094 8.65271 66.3492
      vertex -8.89919 6.46564 69.0526
    endloop
  endfacet
  facet normal -0.510867 0.294949 0.807478
    outer loop
      vertex -11.9094 8.65271 66.3492
      vertex -13.4482 5.98752 66.3492
      vertex -8.89919 6.46564 69.0526
    endloop
  endfacet
  facet normal -0.510867 0.294949 0.807478
    outer loop
      vertex -8.89919 6.46564 69.0526
      vertex -13.4482 5.98752 66.3492
      vertex -10.049 4.4741 69.0526
    endloop
  endfacet
  facet normal -0.561027 0.182289 0.807478
    outer loop
      vertex -13.4482 5.98752 66.3492
      vertex -14.3992 3.06064 66.3492
      vertex -10.049 4.4741 69.0526
    endloop
  endfacet
  facet normal -0.561027 0.182289 0.807477
    outer loop
      vertex -10.049 4.4741 69.0526
      vertex -14.3992 3.06064 66.3492
      vertex -10.7596 2.28703 69.0526
    endloop
  endfacet
  facet normal -0.586667 0.0616611 0.807477
    outer loop
      vertex -14.3992 3.06064 66.3492
      vertex -14.7209 0 66.3492
      vertex -10.7596 2.28703 69.0526
    endloop
  endfacet
  facet normal -0.239933 0.538899 0.807478
    outer loop
      vertex -4.549 14.0004 66.3492
      vertex -7.36044 12.7486 66.3492
      vertex -3.39919 10.4616 69.0526
    endloop
  endfacet
  facet normal -0.239933 0.538899 0.807478
    outer loop
      vertex -3.39919 10.4616 69.0526
      vertex -7.36044 12.7486 66.3492
      vertex -5.5 9.52628 69.0526
    endloop
  endfacet
  facet normal -0.586667 0.0616611 0.807477
    outer loop
      vertex -10.7596 2.28703 69.0526
      vertex -14.7209 0 66.3492
      vertex -11 0 69.0526
    endloop
  endfacet
  facet normal -0.586667 -0.0616611 0.807477
    outer loop
      vertex -11 0 69.0526
      vertex -14.7209 0 66.3492
      vertex -14.3992 -3.06064 66.3492
    endloop
  endfacet
  facet normal -0.586667 -0.0616611 0.807477
    outer loop
      vertex -11 0 69.0526
      vertex -14.3992 -3.06064 66.3492
      vertex -10.7596 -2.28703 69.0526
    endloop
  endfacet
  facet normal -0.561027 -0.182289 0.807477
    outer loop
      vertex -10.7596 -2.28703 69.0526
      vertex -14.3992 -3.06064 66.3492
      vertex -13.4482 -5.98752 66.3492
    endloop
  endfacet
  facet normal -0.561027 -0.182289 0.807478
    outer loop
      vertex -10.7596 -2.28703 69.0526
      vertex -13.4482 -5.98752 66.3492
      vertex -10.049 -4.4741 69.0526
    endloop
  endfacet
  facet normal -0.510867 -0.294949 0.807478
    outer loop
      vertex -10.049 -4.4741 69.0526
      vertex -13.4482 -5.98752 66.3492
      vertex -11.9094 -8.65271 66.3492
    endloop
  endfacet
  facet normal -0.510867 -0.294949 0.807478
    outer loop
      vertex -10.049 -4.4741 69.0526
      vertex -11.9094 -8.65271 66.3492
      vertex -8.89919 -6.46564 69.0526
    endloop
  endfacet
  facet normal -0.43838 -0.394719 0.807478
    outer loop
      vertex -8.89919 -6.46564 69.0526
      vertex -11.9094 -8.65271 66.3492
      vertex -9.85019 -10.9397 66.3492
    endloop
  endfacet
  facet normal -0.43838 -0.394719 0.807478
    outer loop
      vertex -8.89919 -6.46564 69.0526
      vertex -9.85019 -10.9397 66.3492
      vertex -7.36044 -8.17459 69.0526
    endloop
  endfacet
  facet normal -0.346734 -0.477238 0.807478
    outer loop
      vertex -7.36044 -8.17459 69.0526
      vertex -9.85019 -10.9397 66.3492
      vertex -7.36044 -12.7486 66.3492
    endloop
  endfacet
  facet normal -0.346733 -0.477238 0.807478
    outer loop
      vertex -7.36044 -8.17459 69.0526
      vertex -7.36044 -12.7486 66.3492
      vertex -5.5 -9.52628 69.0526
    endloop
  endfacet
  facet normal -0.239933 -0.538899 0.807478
    outer loop
      vertex -5.5 -9.52628 69.0526
      vertex -7.36044 -12.7486 66.3492
      vertex -4.549 -14.0004 66.3492
    endloop
  endfacet
  facet normal -0.239933 -0.538899 0.807478
    outer loop
      vertex -3.39919 -10.4616 69.0526
      vertex -5.5 -9.52628 69.0526
      vertex -4.549 -14.0004 66.3492
    endloop
  endfacet
  facet normal -0.122647 -0.577008 0.807478
    outer loop
      vertex -3.39919 -10.4616 69.0526
      vertex -4.549 -14.0004 66.3492
      vertex -1.53875 -14.6402 66.3492
    endloop
  endfacet
  facet normal -0.122647 -0.577008 0.807478
    outer loop
      vertex -1.14981 -10.9397 69.0526
      vertex -3.39919 -10.4616 69.0526
      vertex -1.53875 -14.6402 66.3492
    endloop
  endfacet
  facet normal 0 -0.589898 0.807478
    outer loop
      vertex -1.14981 -10.9397 69.0526
      vertex -1.53875 -14.6402 66.3492
      vertex 1.53875 -14.6402 66.3492
    endloop
  endfacet
  facet normal 0 -0.589898 0.807478
    outer loop
      vertex 1.14981 -10.9397 69.0526
      vertex -1.14981 -10.9397 69.0526
      vertex 1.53875 -14.6402 66.3492
    endloop
  endfacet
  facet normal 0.122647 -0.577008 0.807478
    outer loop
      vertex 4.549 -14.0004 66.3492
      vertex 1.14981 -10.9397 69.0526
      vertex 1.53875 -14.6402 66.3492
    endloop
  endfacet
  facet normal 0.122647 -0.577008 0.807478
    outer loop
      vertex 3.39919 -10.4616 69.0526
      vertex 1.14981 -10.9397 69.0526
      vertex 4.549 -14.0004 66.3492
    endloop
  endfacet
  facet normal 0.239933 -0.538899 0.807478
    outer loop
      vertex 7.36044 -12.7486 66.3492
      vertex 3.39919 -10.4616 69.0526
      vertex 4.549 -14.0004 66.3492
    endloop
  endfacet
  facet normal 0.239933 -0.538899 0.807478
    outer loop
      vertex 5.5 -9.52628 69.0526
      vertex 3.39919 -10.4616 69.0526
      vertex 7.36044 -12.7486 66.3492
    endloop
  endfacet
  facet normal 0.346733 -0.477238 0.807478
    outer loop
      vertex 9.85019 -10.9397 66.3492
      vertex 5.5 -9.52628 69.0526
      vertex 7.36044 -12.7486 66.3492
    endloop
  endfacet
  facet normal 0.346733 -0.477238 0.807478
    outer loop
      vertex 7.36044 -8.17459 69.0526
      vertex 5.5 -9.52628 69.0526
      vertex 9.85019 -10.9397 66.3492
    endloop
  endfacet
  facet normal 0.43838 -0.394719 0.807478
    outer loop
      vertex 11.9094 -8.65271 66.3492
      vertex 7.36044 -8.17459 69.0526
      vertex 9.85019 -10.9397 66.3492
    endloop
  endfacet
  facet normal 0.43838 -0.394719 0.807478
    outer loop
      vertex 8.89919 -6.46564 69.0526
      vertex 7.36044 -8.17459 69.0526
      vertex 11.9094 -8.65271 66.3492
    endloop
  endfacet
  facet normal 0.510867 -0.294949 0.807478
    outer loop
      vertex 13.4482 -5.98752 66.3492
      vertex 8.89919 -6.46564 69.0526
      vertex 11.9094 -8.65271 66.3492
    endloop
  endfacet
  facet normal 0.510867 -0.294949 0.807478
    outer loop
      vertex 10.049 -4.4741 69.0526
      vertex 8.89919 -6.46564 69.0526
      vertex 13.4482 -5.98752 66.3492
    endloop
  endfacet
  facet normal 0.561027 -0.182289 0.807478
    outer loop
      vertex 14.3992 -3.06064 66.3492
      vertex 10.049 -4.4741 69.0526
      vertex 13.4482 -5.98752 66.3492
    endloop
  endfacet
  facet normal 0.561027 -0.182289 0.807477
    outer loop
      vertex 10.7596 -2.28703 69.0526
      vertex 10.049 -4.4741 69.0526
      vertex 14.3992 -3.06064 66.3492
    endloop
  endfacet
  facet normal 0.586667 -0.0616611 0.807477
    outer loop
      vertex 14.7209 0 66.3492
      vertex 10.7596 -2.28703 69.0526
      vertex 14.3992 -3.06064 66.3492
    endloop
  endfacet
  facet normal 0.586667 -0.0616611 0.807477
    outer loop
      vertex 11 0 69.0526
      vertex 10.7596 -2.28703 69.0526
      vertex 14.7209 0 66.3492
    endloop
  endfacet
  facet normal 0.586667 0.0616611 0.807477
    outer loop
      vertex 14.3992 3.06064 66.3492
      vertex 11 0 69.0526
      vertex 14.7209 0 66.3492
    endloop
  endfacet
  facet normal 0.586667 0.0616611 0.807477
    outer loop
      vertex 14.3992 3.06064 66.3492
      vertex 10.7596 2.28703 69.0526
      vertex 11 0 69.0526
    endloop
  endfacet
  facet normal 0.561027 0.182289 0.807477
    outer loop
      vertex 13.4482 5.98752 66.3492
      vertex 10.7596 2.28703 69.0526
      vertex 14.3992 3.06064 66.3492
    endloop
  endfacet
  facet normal 0.561027 0.182289 0.807478
    outer loop
      vertex 13.4482 5.98752 66.3492
      vertex 10.049 4.4741 69.0526
      vertex 10.7596 2.28703 69.0526
    endloop
  endfacet
  facet normal 0.510867 0.294949 0.807478
    outer loop
      vertex 11.9094 8.65271 66.3492
      vertex 10.049 4.4741 69.0526
      vertex 13.4482 5.98752 66.3492
    endloop
  endfacet
  facet normal 0.510867 0.294949 0.807478
    outer loop
      vertex 11.9094 8.65271 66.3492
      vertex 8.89919 6.46564 69.0526
      vertex 10.049 4.4741 69.0526
    endloop
  endfacet
  facet normal 0.43838 0.394719 0.807478
    outer loop
      vertex 9.85019 10.9397 66.3492
      vertex 8.89919 6.46564 69.0526
      vertex 11.9094 8.65271 66.3492
    endloop
  endfacet
  facet normal 0.43838 0.394719 0.807478
    outer loop
      vertex 9.85019 10.9397 66.3492
      vertex 7.36044 8.17459 69.0526
      vertex 8.89919 6.46564 69.0526
    endloop
  endfacet
  facet normal 0.346734 0.477238 0.807478
    outer loop
      vertex 7.36044 12.7486 66.3492
      vertex 7.36044 8.17459 69.0526
      vertex 9.85019 10.9397 66.3492
    endloop
  endfacet
  facet normal 0.346733 0.477238 0.807478
    outer loop
      vertex 7.36044 12.7486 66.3492
      vertex 5.5 9.52628 69.0526
      vertex 7.36044 8.17459 69.0526
    endloop
  endfacet
  facet normal 0.239933 0.538899 0.807478
    outer loop
      vertex 7.36044 12.7486 66.3492
      vertex 4.549 14.0004 66.3492
      vertex 5.5 9.52628 69.0526
    endloop
  endfacet
  facet normal 0.239933 0.538899 0.807478
    outer loop
      vertex 4.549 14.0004 66.3492
      vertex 3.39919 10.4616 69.0526
      vertex 5.5 9.52628 69.0526
    endloop
  endfacet
  facet normal 0.122647 0.577008 0.807478
    outer loop
      vertex 4.549 14.0004 66.3492
      vertex 1.53875 14.6402 66.3492
      vertex 3.39919 10.4616 69.0526
    endloop
  endfacet
  facet normal 0.122647 0.577008 0.807478
    outer loop
      vertex 1.53875 14.6402 66.3492
      vertex 1.14981 10.9397 69.0526
      vertex 3.39919 10.4616 69.0526
    endloop
  endfacet
  facet normal 0 0.589898 0.807478
    outer loop
      vertex 1.53875 14.6402 66.3492
      vertex -1.53875 14.6402 66.3492
      vertex -1.14981 10.9397 69.0526
    endloop
  endfacet
  facet normal 0 0.589898 0.807478
    outer loop
      vertex 1.14981 10.9397 69.0526
      vertex 1.53875 14.6402 66.3492
      vertex -1.14981 10.9397 69.0526
    endloop
  endfacet
  facet normal -0.122647 0.577008 0.807478
    outer loop
      vertex -1.53875 14.6402 66.3492
      vertex -4.549 14.0004 66.3492
      vertex -1.14981 10.9397 69.0526
    endloop
  endfacet
  facet normal -0.122647 0.577008 0.807478
    outer loop
      vertex -1.14981 10.9397 69.0526
      vertex -4.549 14.0004 66.3492
      vertex -3.39919 10.4616 69.0526
    endloop
  endfacet
  facet normal -0.166194 0.373278 0.912712
    outer loop
      vertex -3.39919 10.4616 69.0526
      vertex -5.5 9.52628 69.0526
      vertex -2.10081 6.46564 70.9232
    endloop
  endfacet
  facet normal -0.166194 0.373278 0.912712
    outer loop
      vertex -2.10081 6.46564 70.9232
      vertex -5.5 9.52628 69.0526
      vertex -3.39919 5.88756 70.9232
    endloop
  endfacet
  facet normal -0.240171 0.330567 0.912712
    outer loop
      vertex -5.5 9.52628 69.0526
      vertex -7.36044 8.17459 69.0526
      vertex -3.39919 5.88756 70.9232
    endloop
  endfacet
  facet normal -0.240171 0.330567 0.912712
    outer loop
      vertex -3.39919 5.88756 70.9232
      vertex -7.36044 8.17459 69.0526
      vertex -4.549 5.05218 70.9232
    endloop
  endfacet
  facet normal -0.303652 0.273409 0.912712
    outer loop
      vertex -7.36044 8.17459 69.0526
      vertex -8.89919 6.46564 69.0526
      vertex -4.549 5.05218 70.9232
    endloop
  endfacet
  facet normal -0.303652 0.273409 0.912712
    outer loop
      vertex -4.549 5.05218 70.9232
      vertex -8.89919 6.46564 69.0526
      vertex -5.5 3.99598 70.9232
    endloop
  endfacet
  facet normal -0.353861 0.204302 0.912712
    outer loop
      vertex -8.89919 6.46564 69.0526
      vertex -10.049 4.4741 69.0526
      vertex -5.5 3.99598 70.9232
    endloop
  endfacet
  facet normal -0.353861 0.204302 0.912712
    outer loop
      vertex -5.5 3.99598 70.9232
      vertex -10.049 4.4741 69.0526
      vertex -6.21062 2.76515 70.9232
    endloop
  endfacet
  facet normal -0.388605 0.126266 0.912712
    outer loop
      vertex -10.049 4.4741 69.0526
      vertex -10.7596 2.28703 69.0526
      vertex -6.21062 2.76515 70.9232
    endloop
  endfacet
  facet normal -0.388605 0.126265 0.912712
    outer loop
      vertex -6.21062 2.76515 70.9232
      vertex -10.7596 2.28703 69.0526
      vertex -6.64981 1.41346 70.9232
    endloop
  endfacet
  facet normal -0.406365 0.0427106 0.912712
    outer loop
      vertex -10.7596 2.28703 69.0526
      vertex -11 0 69.0526
      vertex -6.64981 1.41346 70.9232
    endloop
  endfacet
  facet normal -0.0849535 0.399675 0.912712
    outer loop
      vertex -1.14981 10.9397 69.0526
      vertex -3.39919 10.4616 69.0526
      vertex -0.710624 6.76113 70.9232
    endloop
  endfacet
  facet normal -0.0849536 0.399675 0.912712
    outer loop
      vertex -0.710624 6.76113 70.9232
      vertex -3.39919 10.4616 69.0526
      vertex -2.10081 6.46564 70.9232
    endloop
  endfacet
  facet normal -0.406365 0.0427108 0.912712
    outer loop
      vertex -6.64981 1.41346 70.9232
      vertex -11 0 69.0526
      vertex -6.79837 0 70.9232
    endloop
  endfacet
  facet normal -0.406365 -0.0427106 0.912712
    outer loop
      vertex -6.79837 0 70.9232
      vertex -11 0 69.0526
      vertex -10.7596 -2.28703 69.0526
    endloop
  endfacet
  facet normal -0.406365 -0.0427108 0.912712
    outer loop
      vertex -6.79837 0 70.9232
      vertex -10.7596 -2.28703 69.0526
      vertex -6.64981 -1.41346 70.9232
    endloop
  endfacet
  facet normal -0.388605 -0.126266 0.912712
    outer loop
      vertex -6.64981 -1.41346 70.9232
      vertex -10.7596 -2.28703 69.0526
      vertex -10.049 -4.4741 69.0526
    endloop
  endfacet
  facet normal -0.388605 -0.126265 0.912712
    outer loop
      vertex -6.64981 -1.41346 70.9232
      vertex -10.049 -4.4741 69.0526
      vertex -6.21062 -2.76515 70.9232
    endloop
  endfacet
  facet normal -0.353861 -0.204302 0.912712
    outer loop
      vertex -6.21062 -2.76515 70.9232
      vertex -10.049 -4.4741 69.0526
      vertex -8.89919 -6.46564 69.0526
    endloop
  endfacet
  facet normal -0.353861 -0.204302 0.912712
    outer loop
      vertex -6.21062 -2.76515 70.9232
      vertex -8.89919 -6.46564 69.0526
      vertex -5.5 -3.99598 70.9232
    endloop
  endfacet
  facet normal -0.303652 -0.273409 0.912712
    outer loop
      vertex -5.5 -3.99598 70.9232
      vertex -8.89919 -6.46564 69.0526
      vertex -7.36044 -8.17459 69.0526
    endloop
  endfacet
  facet normal -0.303652 -0.273409 0.912712
    outer loop
      vertex -5.5 -3.99598 70.9232
      vertex -7.36044 -8.17459 69.0526
      vertex -4.549 -5.05218 70.9232
    endloop
  endfacet
  facet normal -0.240171 -0.330567 0.912712
    outer loop
      vertex -4.549 -5.05218 70.9232
      vertex -7.36044 -8.17459 69.0526
      vertex -5.5 -9.52628 69.0526
    endloop
  endfacet
  facet normal -0.240171 -0.330567 0.912712
    outer loop
      vertex -4.549 -5.05218 70.9232
      vertex -5.5 -9.52628 69.0526
      vertex -3.39919 -5.88756 70.9232
    endloop
  endfacet
  facet normal -0.166194 -0.373278 0.912712
    outer loop
      vertex -3.39919 -5.88756 70.9232
      vertex -5.5 -9.52628 69.0526
      vertex -3.39919 -10.4616 69.0526
    endloop
  endfacet
  facet normal -0.166194 -0.373278 0.912712
    outer loop
      vertex -3.39919 -5.88756 70.9232
      vertex -3.39919 -10.4616 69.0526
      vertex -2.10081 -6.46564 70.9232
    endloop
  endfacet
  facet normal -0.0849535 -0.399675 0.912712
    outer loop
      vertex -2.10081 -6.46564 70.9232
      vertex -3.39919 -10.4616 69.0526
      vertex -1.14981 -10.9397 69.0526
    endloop
  endfacet
  facet normal -0.0849536 -0.399675 0.912712
    outer loop
      vertex -0.710624 -6.76113 70.9232
      vertex -2.10081 -6.46564 70.9232
      vertex -1.14981 -10.9397 69.0526
    endloop
  endfacet
  facet normal 0 -0.408604 0.912712
    outer loop
      vertex -0.710624 -6.76113 70.9232
      vertex -1.14981 -10.9397 69.0526
      vertex 1.14981 -10.9397 69.0526
    endloop
  endfacet
  facet normal 0 -0.408604 0.912712
    outer loop
      vertex 0.710624 -6.76113 70.9232
      vertex -0.710624 -6.76113 70.9232
      vertex 1.14981 -10.9397 69.0526
    endloop
  endfacet
  facet normal 0.0849535 -0.399675 0.912712
    outer loop
      vertex 3.39919 -10.4616 69.0526
      vertex 0.710624 -6.76113 70.9232
      vertex 1.14981 -10.9397 69.0526
    endloop
  endfacet
  facet normal 0.0849536 -0.399675 0.912712
    outer loop
      vertex 2.10081 -6.46564 70.9232
      vertex 0.710624 -6.76113 70.9232
      vertex 3.39919 -10.4616 69.0526
    endloop
  endfacet
  facet normal 0.166194 -0.373278 0.912712
    outer loop
      vertex 5.5 -9.52628 69.0526
      vertex 2.10081 -6.46564 70.9232
      vertex 3.39919 -10.4616 69.0526
    endloop
  endfacet
  facet normal 0.166194 -0.373278 0.912712
    outer loop
      vertex 3.39919 -5.88756 70.9232
      vertex 2.10081 -6.46564 70.9232
      vertex 5.5 -9.52628 69.0526
    endloop
  endfacet
  facet normal 0.240171 -0.330567 0.912712
    outer loop
      vertex 7.36044 -8.17459 69.0526
      vertex 3.39919 -5.88756 70.9232
      vertex 5.5 -9.52628 69.0526
    endloop
  endfacet
  facet normal 0.240171 -0.330567 0.912712
    outer loop
      vertex 4.549 -5.05218 70.9232
      vertex 3.39919 -5.88756 70.9232
      vertex 7.36044 -8.17459 69.0526
    endloop
  endfacet
  facet normal 0.303652 -0.273409 0.912712
    outer loop
      vertex 8.89919 -6.46564 69.0526
      vertex 4.549 -5.05218 70.9232
      vertex 7.36044 -8.17459 69.0526
    endloop
  endfacet
  facet normal 0.303652 -0.273409 0.912712
    outer loop
      vertex 5.5 -3.99598 70.9232
      vertex 4.549 -5.05218 70.9232
      vertex 8.89919 -6.46564 69.0526
    endloop
  endfacet
  facet normal 0.353861 -0.204302 0.912712
    outer loop
      vertex 10.049 -4.4741 69.0526
      vertex 5.5 -3.99598 70.9232
      vertex 8.89919 -6.46564 69.0526
    endloop
  endfacet
  facet normal 0.353861 -0.204302 0.912712
    outer loop
      vertex 6.21062 -2.76515 70.9232
      vertex 5.5 -3.99598 70.9232
      vertex 10.049 -4.4741 69.0526
    endloop
  endfacet
  facet normal 0.388605 -0.126266 0.912712
    outer loop
      vertex 10.7596 -2.28703 69.0526
      vertex 6.21062 -2.76515 70.9232
      vertex 10.049 -4.4741 69.0526
    endloop
  endfacet
  facet normal 0.388605 -0.126265 0.912712
    outer loop
      vertex 6.64981 -1.41346 70.9232
      vertex 6.21062 -2.76515 70.9232
      vertex 10.7596 -2.28703 69.0526
    endloop
  endfacet
  facet normal 0.406365 -0.0427106 0.912712
    outer loop
      vertex 11 0 69.0526
      vertex 6.64981 -1.41346 70.9232
      vertex 10.7596 -2.28703 69.0526
    endloop
  endfacet
  facet normal 0.406365 -0.0427108 0.912712
    outer loop
      vertex 6.79837 0 70.9232
      vertex 6.64981 -1.41346 70.9232
      vertex 11 0 69.0526
    endloop
  endfacet
  facet normal 0.406365 0.0427106 0.912712
    outer loop
      vertex 10.7596 2.28703 69.0526
      vertex 6.79837 0 70.9232
      vertex 11 0 69.0526
    endloop
  endfacet
  facet normal 0.406365 0.0427108 0.912712
    outer loop
      vertex 10.7596 2.28703 69.0526
      vertex 6.64981 1.41346 70.9232
      vertex 6.79837 0 70.9232
    endloop
  endfacet
  facet normal 0.388605 0.126266 0.912712
    outer loop
      vertex 10.049 4.4741 69.0526
      vertex 6.64981 1.41346 70.9232
      vertex 10.7596 2.28703 69.0526
    endloop
  endfacet
  facet normal 0.388605 0.126265 0.912712
    outer loop
      vertex 10.049 4.4741 69.0526
      vertex 6.21062 2.76515 70.9232
      vertex 6.64981 1.41346 70.9232
    endloop
  endfacet
  facet normal 0.353861 0.204302 0.912712
    outer loop
      vertex 8.89919 6.46564 69.0526
      vertex 6.21062 2.76515 70.9232
      vertex 10.049 4.4741 69.0526
    endloop
  endfacet
  facet normal 0.353861 0.204302 0.912712
    outer loop
      vertex 8.89919 6.46564 69.0526
      vertex 5.5 3.99598 70.9232
      vertex 6.21062 2.76515 70.9232
    endloop
  endfacet
  facet normal 0.303652 0.273409 0.912712
    outer loop
      vertex 7.36044 8.17459 69.0526
      vertex 5.5 3.99598 70.9232
      vertex 8.89919 6.46564 69.0526
    endloop
  endfacet
  facet normal 0.303652 0.273409 0.912712
    outer loop
      vertex 7.36044 8.17459 69.0526
      vertex 4.549 5.05218 70.9232
      vertex 5.5 3.99598 70.9232
    endloop
  endfacet
  facet normal 0.240171 0.330567 0.912712
    outer loop
      vertex 5.5 9.52628 69.0526
      vertex 4.549 5.05218 70.9232
      vertex 7.36044 8.17459 69.0526
    endloop
  endfacet
  facet normal 0.240171 0.330567 0.912712
    outer loop
      vertex 5.5 9.52628 69.0526
      vertex 3.39919 5.88756 70.9232
      vertex 4.549 5.05218 70.9232
    endloop
  endfacet
  facet normal 0.166194 0.373278 0.912712
    outer loop
      vertex 3.39919 10.4616 69.0526
      vertex 3.39919 5.88756 70.9232
      vertex 5.5 9.52628 69.0526
    endloop
  endfacet
  facet normal 0.166194 0.373278 0.912712
    outer loop
      vertex 3.39919 10.4616 69.0526
      vertex 2.10081 6.46564 70.9232
      vertex 3.39919 5.88756 70.9232
    endloop
  endfacet
  facet normal 0.0849535 0.399675 0.912712
    outer loop
      vertex 3.39919 10.4616 69.0526
      vertex 1.14981 10.9397 69.0526
      vertex 2.10081 6.46564 70.9232
    endloop
  endfacet
  facet normal 0.0849536 0.399675 0.912712
    outer loop
      vertex 1.14981 10.9397 69.0526
      vertex 0.710624 6.76113 70.9232
      vertex 2.10081 6.46564 70.9232
    endloop
  endfacet
  facet normal 0 0.408604 0.912712
    outer loop
      vertex 1.14981 10.9397 69.0526
      vertex -1.14981 10.9397 69.0526
      vertex -0.710624 6.76113 70.9232
    endloop
  endfacet
  facet normal 0 0.408604 0.912712
    outer loop
      vertex 0.710624 6.76113 70.9232
      vertex 1.14981 10.9397 69.0526
      vertex -0.710624 6.76113 70.9232
    endloop
  endfacet
  facet normal -0.0434551 0.20444 0.977914
    outer loop
      vertex -0.710624 6.76113 70.9232
      vertex -2.10081 6.46564 70.9232
      vertex -0.240376 2.28703 71.8795
    endloop
  endfacet
  facet normal -0.0434553 0.20444 0.977914
    outer loop
      vertex -0.240376 2.28703 71.8795
      vertex -2.10081 6.46564 70.9232
      vertex -0.710624 2.18707 71.8795
    endloop
  endfacet
  facet normal -0.0850109 0.190938 0.977914
    outer loop
      vertex -2.10081 6.46564 70.9232
      vertex -3.39919 5.88756 70.9232
      vertex -0.710624 2.18707 71.8795
    endloop
  endfacet
  facet normal -0.0850107 0.190938 0.977914
    outer loop
      vertex -0.710624 2.18707 71.8795
      vertex -3.39919 5.88756 70.9232
      vertex -1.14981 1.99153 71.8795
    endloop
  endfacet
  facet normal -0.122851 0.16909 0.977914
    outer loop
      vertex -3.39919 5.88756 70.9232
      vertex -4.549 5.05218 70.9232
      vertex -1.14981 1.99153 71.8795
    endloop
  endfacet
  facet normal -0.122852 0.16909 0.977914
    outer loop
      vertex -1.14981 1.99153 71.8795
      vertex -4.549 5.05218 70.9232
      vertex -1.53875 1.70896 71.8795
    endloop
  endfacet
  facet normal -0.155323 0.139853 0.977914
    outer loop
      vertex -4.549 5.05218 70.9232
      vertex -5.5 3.99598 70.9232
      vertex -1.53875 1.70896 71.8795
    endloop
  endfacet
  facet normal -0.155322 0.139853 0.977914
    outer loop
      vertex -1.53875 1.70896 71.8795
      vertex -5.5 3.99598 70.9232
      vertex -1.86044 1.35169 71.8795
    endloop
  endfacet
  facet normal -0.181005 0.104504 0.977914
    outer loop
      vertex -5.5 3.99598 70.9232
      vertex -6.21062 2.76515 70.9232
      vertex -1.86044 1.35169 71.8795
    endloop
  endfacet
  facet normal -0.181006 0.104503 0.977914
    outer loop
      vertex -1.86044 1.35169 71.8795
      vertex -6.21062 2.76515 70.9232
      vertex -2.10081 0.935342 71.8795
    endloop
  endfacet
  facet normal -0.198778 0.0645867 0.977914
    outer loop
      vertex -6.21062 2.76515 70.9232
      vertex -6.64981 1.41346 70.9232
      vertex -2.10081 0.935342 71.8795
    endloop
  endfacet
  facet normal -0.198778 0.0645869 0.977914
    outer loop
      vertex -2.10081 0.935342 71.8795
      vertex -6.64981 1.41346 70.9232
      vertex -2.24937 0.478119 71.8795
    endloop
  endfacet
  facet normal -0.207862 0.0218472 0.977914
    outer loop
      vertex -6.64981 1.41346 70.9232
      vertex -6.79837 0 70.9232
      vertex -2.24937 0.478119 71.8795
    endloop
  endfacet
  facet normal 0 0.209007 0.977914
    outer loop
      vertex 0.710624 6.76113 70.9232
      vertex -0.710624 6.76113 70.9232
      vertex -0.240376 2.28703 71.8795
    endloop
  endfacet
  facet normal 0 0.209007 0.977914
    outer loop
      vertex 0.240376 2.28703 71.8795
      vertex 0.710624 6.76113 70.9232
      vertex -0.240376 2.28703 71.8795
    endloop
  endfacet
  facet normal -0.207862 0.0218471 0.977914
    outer loop
      vertex -2.24937 0.478119 71.8795
      vertex -6.79837 0 70.9232
      vertex -2.29963 0 71.8795
    endloop
  endfacet
  facet normal -0.207862 -0.0218472 0.977914
    outer loop
      vertex -2.29963 0 71.8795
      vertex -6.79837 0 70.9232
      vertex -6.64981 -1.41346 70.9232
    endloop
  endfacet
  facet normal -0.207862 -0.0218471 0.977914
    outer loop
      vertex -2.29963 0 71.8795
      vertex -6.64981 -1.41346 70.9232
      vertex -2.24937 -0.478119 71.8795
    endloop
  endfacet
  facet normal -0.198778 -0.0645867 0.977914
    outer loop
      vertex -2.24937 -0.478119 71.8795
      vertex -6.64981 -1.41346 70.9232
      vertex -6.21062 -2.76515 70.9232
    endloop
  endfacet
  facet normal -0.198778 -0.0645869 0.977914
    outer loop
      vertex -2.24937 -0.478119 71.8795
      vertex -6.21062 -2.76515 70.9232
      vertex -2.10081 -0.935342 71.8795
    endloop
  endfacet
  facet normal -0.181005 -0.104504 0.977914
    outer loop
      vertex -2.10081 -0.935342 71.8795
      vertex -6.21062 -2.76515 70.9232
      vertex -5.5 -3.99598 70.9232
    endloop
  endfacet
  facet normal -0.181006 -0.104503 0.977914
    outer loop
      vertex -2.10081 -0.935342 71.8795
      vertex -5.5 -3.99598 70.9232
      vertex -1.86044 -1.35169 71.8795
    endloop
  endfacet
  facet normal -0.155323 -0.139853 0.977914
    outer loop
      vertex -1.86044 -1.35169 71.8795
      vertex -5.5 -3.99598 70.9232
      vertex -4.549 -5.05218 70.9232
    endloop
  endfacet
  facet normal -0.155322 -0.139853 0.977914
    outer loop
      vertex -1.86044 -1.35169 71.8795
      vertex -4.549 -5.05218 70.9232
      vertex -1.53875 -1.70896 71.8795
    endloop
  endfacet
  facet normal -0.122851 -0.16909 0.977914
    outer loop
      vertex -1.53875 -1.70896 71.8795
      vertex -4.549 -5.05218 70.9232
      vertex -3.39919 -5.88756 70.9232
    endloop
  endfacet
  facet normal -0.122852 -0.16909 0.977914
    outer loop
      vertex -1.53875 -1.70896 71.8795
      vertex -3.39919 -5.88756 70.9232
      vertex -1.14981 -1.99153 71.8795
    endloop
  endfacet
  facet normal -0.085011 -0.190938 0.977914
    outer loop
      vertex -1.14981 -1.99153 71.8795
      vertex -3.39919 -5.88756 70.9232
      vertex -2.10081 -6.46564 70.9232
    endloop
  endfacet
  facet normal -0.0850107 -0.190938 0.977914
    outer loop
      vertex -1.14981 -1.99153 71.8795
      vertex -2.10081 -6.46564 70.9232
      vertex -0.710624 -2.18707 71.8795
    endloop
  endfacet
  facet normal -0.0434551 -0.20444 0.977914
    outer loop
      vertex -0.710624 -2.18707 71.8795
      vertex -2.10081 -6.46564 70.9232
      vertex -0.710624 -6.76113 70.9232
    endloop
  endfacet
  facet normal -0.0434553 -0.20444 0.977914
    outer loop
      vertex -0.710624 -2.18707 71.8795
      vertex -0.710624 -6.76113 70.9232
      vertex -0.240376 -2.28703 71.8795
    endloop
  endfacet
  facet normal 0 -0.209007 0.977914
    outer loop
      vertex -0.240376 -2.28703 71.8795
      vertex -0.710624 -6.76113 70.9232
      vertex 0.710624 -6.76113 70.9232
    endloop
  endfacet
  facet normal 0 -0.209007 0.977914
    outer loop
      vertex 0.240376 -2.28703 71.8795
      vertex -0.240376 -2.28703 71.8795
      vertex 0.710624 -6.76113 70.9232
    endloop
  endfacet
  facet normal 0.0434551 -0.20444 0.977914
    outer loop
      vertex 2.10081 -6.46564 70.9232
      vertex 0.240376 -2.28703 71.8795
      vertex 0.710624 -6.76113 70.9232
    endloop
  endfacet
  facet normal 0.0434553 -0.20444 0.977914
    outer loop
      vertex 0.710624 -2.18707 71.8795
      vertex 0.240376 -2.28703 71.8795
      vertex 2.10081 -6.46564 70.9232
    endloop
  endfacet
  facet normal 0.0850109 -0.190938 0.977914
    outer loop
      vertex 3.39919 -5.88756 70.9232
      vertex 0.710624 -2.18707 71.8795
      vertex 2.10081 -6.46564 70.9232
    endloop
  endfacet
  facet normal 0.0850107 -0.190938 0.977914
    outer loop
      vertex 1.14981 -1.99153 71.8795
      vertex 0.710624 -2.18707 71.8795
      vertex 3.39919 -5.88756 70.9232
    endloop
  endfacet
  facet normal 0.122851 -0.16909 0.977914
    outer loop
      vertex 4.549 -5.05218 70.9232
      vertex 1.14981 -1.99153 71.8795
      vertex 3.39919 -5.88756 70.9232
    endloop
  endfacet
  facet normal 0.122852 -0.16909 0.977914
    outer loop
      vertex 1.53875 -1.70896 71.8795
      vertex 1.14981 -1.99153 71.8795
      vertex 4.549 -5.05218 70.9232
    endloop
  endfacet
  facet normal 0.155323 -0.139853 0.977914
    outer loop
      vertex 5.5 -3.99598 70.9232
      vertex 1.53875 -1.70896 71.8795
      vertex 4.549 -5.05218 70.9232
    endloop
  endfacet
  facet normal 0.155322 -0.139853 0.977914
    outer loop
      vertex 1.86044 -1.35169 71.8795
      vertex 1.53875 -1.70896 71.8795
      vertex 5.5 -3.99598 70.9232
    endloop
  endfacet
  facet normal 0.181005 -0.104504 0.977914
    outer loop
      vertex 6.21062 -2.76515 70.9232
      vertex 1.86044 -1.35169 71.8795
      vertex 5.5 -3.99598 70.9232
    endloop
  endfacet
  facet normal 0.181006 -0.104503 0.977914
    outer loop
      vertex 2.10081 -0.935342 71.8795
      vertex 1.86044 -1.35169 71.8795
      vertex 6.21062 -2.76515 70.9232
    endloop
  endfacet
  facet normal 0.198778 -0.0645867 0.977914
    outer loop
      vertex 6.64981 -1.41346 70.9232
      vertex 2.10081 -0.935342 71.8795
      vertex 6.21062 -2.76515 70.9232
    endloop
  endfacet
  facet normal 0.198778 -0.0645869 0.977914
    outer loop
      vertex 2.24937 -0.478119 71.8795
      vertex 2.10081 -0.935342 71.8795
      vertex 6.64981 -1.41346 70.9232
    endloop
  endfacet
  facet normal 0.207862 -0.0218472 0.977914
    outer loop
      vertex 6.79837 0 70.9232
      vertex 2.24937 -0.478119 71.8795
      vertex 6.64981 -1.41346 70.9232
    endloop
  endfacet
  facet normal 0.207862 -0.0218471 0.977914
    outer loop
      vertex 2.29963 0 71.8795
      vertex 2.24937 -0.478119 71.8795
      vertex 6.79837 0 70.9232
    endloop
  endfacet
  facet normal 0.207862 0.0218472 0.977914
    outer loop
      vertex 6.64981 1.41346 70.9232
      vertex 2.29963 0 71.8795
      vertex 6.79837 0 70.9232
    endloop
  endfacet
  facet normal 0.207862 0.0218471 0.977914
    outer loop
      vertex 6.64981 1.41346 70.9232
      vertex 2.24937 0.478119 71.8795
      vertex 2.29963 0 71.8795
    endloop
  endfacet
  facet normal 0.198778 0.0645867 0.977914
    outer loop
      vertex 6.21062 2.76515 70.9232
      vertex 2.24937 0.478119 71.8795
      vertex 6.64981 1.41346 70.9232
    endloop
  endfacet
  facet normal 0.198778 0.0645869 0.977914
    outer loop
      vertex 6.21062 2.76515 70.9232
      vertex 2.10081 0.935342 71.8795
      vertex 2.24937 0.478119 71.8795
    endloop
  endfacet
  facet normal 0.181005 0.104504 0.977914
    outer loop
      vertex 5.5 3.99598 70.9232
      vertex 2.10081 0.935342 71.8795
      vertex 6.21062 2.76515 70.9232
    endloop
  endfacet
  facet normal 0.181006 0.104503 0.977914
    outer loop
      vertex 5.5 3.99598 70.9232
      vertex 1.86044 1.35169 71.8795
      vertex 2.10081 0.935342 71.8795
    endloop
  endfacet
  facet normal 0.155323 0.139853 0.977914
    outer loop
      vertex 4.549 5.05218 70.9232
      vertex 1.86044 1.35169 71.8795
      vertex 5.5 3.99598 70.9232
    endloop
  endfacet
  facet normal 0.155322 0.139853 0.977914
    outer loop
      vertex 4.549 5.05218 70.9232
      vertex 1.53875 1.70896 71.8795
      vertex 1.86044 1.35169 71.8795
    endloop
  endfacet
  facet normal 0.122851 0.16909 0.977914
    outer loop
      vertex 3.39919 5.88756 70.9232
      vertex 1.53875 1.70896 71.8795
      vertex 4.549 5.05218 70.9232
    endloop
  endfacet
  facet normal 0.122852 0.16909 0.977914
    outer loop
      vertex 3.39919 5.88756 70.9232
      vertex 1.14981 1.99153 71.8795
      vertex 1.53875 1.70896 71.8795
    endloop
  endfacet
  facet normal 0.085011 0.190938 0.977914
    outer loop
      vertex 2.10081 6.46564 70.9232
      vertex 1.14981 1.99153 71.8795
      vertex 3.39919 5.88756 70.9232
    endloop
  endfacet
  facet normal 0.0850107 0.190938 0.977914
    outer loop
      vertex 2.10081 6.46564 70.9232
      vertex 0.710624 2.18707 71.8795
      vertex 1.14981 1.99153 71.8795
    endloop
  endfacet
  facet normal 0.0434551 0.20444 0.977914
    outer loop
      vertex 0.710624 6.76113 70.9232
      vertex 0.710624 2.18707 71.8795
      vertex 2.10081 6.46564 70.9232
    endloop
  endfacet
  facet normal 0.0434553 0.20444 0.977914
    outer loop
      vertex 0.710624 6.76113 70.9232
      vertex 0.240376 2.28703 71.8795
      vertex 0.710624 2.18707 71.8795
    endloop
  endfacet
  facet normal 0 0 1
    outer loop
      vertex -2.24937 0.478119 71.8795
      vertex -2.29963 0 71.8795
      vertex -2.24937 -0.478119 71.8795
    endloop
  endfacet
  facet normal 0 0 1
    outer loop
      vertex -1.86044 -1.35169 71.8795
      vertex -2.24937 0.478119 71.8795
      vertex -2.10081 -0.935342 71.8795
    endloop
  endfacet
  facet normal 0 0 1
    outer loop
      vertex -2.10081 -0.935342 71.8795
      vertex -2.24937 0.478119 71.8795
      vertex -2.24937 -0.478119 71.8795
    endloop
  endfacet
  facet normal 0 0 1
    outer loop
      vertex -1.53875 -1.70896 71.8795
      vertex -2.24937 0.478119 71.8795
      vertex -1.86044 -1.35169 71.8795
    endloop
  endfacet
  facet normal 0 0 1
    outer loop
      vertex -1.14981 -1.99153 71.8795
      vertex -2.24937 0.478119 71.8795
      vertex -1.53875 -1.70896 71.8795
    endloop
  endfacet
  facet normal 0 0 1
    outer loop
      vertex -0.710624 -2.18707 71.8795
      vertex -2.24937 0.478119 71.8795
      vertex -1.14981 -1.99153 71.8795
    endloop
  endfacet
  facet normal 0 0 1
    outer loop
      vertex -0.240376 -2.28703 71.8795
      vertex -2.24937 0.478119 71.8795
      vertex -0.710624 -2.18707 71.8795
    endloop
  endfacet
  facet normal 0 0 1
    outer loop
      vertex 0.240376 -2.28703 71.8795
      vertex -2.24937 0.478119 71.8795
      vertex -0.240376 -2.28703 71.8795
    endloop
  endfacet
  facet normal 0 0 1
    outer loop
      vertex 0.710624 -2.18707 71.8795
      vertex -2.24937 0.478119 71.8795
      vertex 0.240376 -2.28703 71.8795
    endloop
  endfacet
  facet normal 0 0 1
    outer loop
      vertex 1.14981 -1.99153 71.8795
      vertex -2.24937 0.478119 71.8795
      vertex 0.710624 -2.18707 71.8795
    endloop
  endfacet
  facet normal 0 0 1
    outer loop
      vertex 1.53875 -1.70896 71.8795
      vertex -2.24937 0.478119 71.8795
      vertex 1.14981 -1.99153 71.8795
    endloop
  endfacet
  facet normal 0 0 1
    outer loop
      vertex 1.86044 -1.35169 71.8795
      vertex -2.24937 0.478119 71.8795
      vertex 1.53875 -1.70896 71.8795
    endloop
  endfacet
  facet normal 0 0 1
    outer loop
      vertex 2.10081 -0.935342 71.8795
      vertex -2.24937 0.478119 71.8795
      vertex 1.86044 -1.35169 71.8795
    endloop
  endfacet
  facet normal 0 0 1
    outer loop
      vertex 2.24937 -0.478119 71.8795
      vertex -2.24937 0.478119 71.8795
      vertex 2.10081 -0.935342 71.8795
    endloop
  endfacet
  facet normal 0 0 1
    outer loop
      vertex 2.29963 0 71.8795
      vertex -2.24937 0.478119 71.8795
      vertex 2.24937 -0.478119 71.8795
    endloop
  endfacet
  facet normal 0 0 1
    outer loop
      vertex 2.24937 0.478119 71.8795
      vertex -2.24937 0.478119 71.8795
      vertex 2.29963 0 71.8795
    endloop
  endfacet
  facet normal 0 0 1
    outer loop
      vertex 2.10081 0.935342 71.8795
      vertex -2.24937 0.478119 71.8795
      vertex 2.24937 0.478119 71.8795
    endloop
  endfacet
  facet normal 0 0 1
    outer loop
      vertex 1.86044 1.35169 71.8795
      vertex -2.24937 0.478119 71.8795
      vertex 2.10081 0.935342 71.8795
    endloop
  endfacet
  facet normal 0 0 1
    outer loop
      vertex 1.53875 1.70896 71.8795
      vertex -2.24937 0.478119 71.8795
      vertex 1.86044 1.35169 71.8795
    endloop
  endfacet
  facet normal 0 0 1
    outer loop
      vertex 1.14981 1.99153 71.8795
      vertex -2.24937 0.478119 71.8795
      vertex 1.53875 1.70896 71.8795
    endloop
  endfacet
  facet normal 0 0 1
    outer loop
      vertex 0.710624 2.18707 71.8795
      vertex -2.24937 0.478119 71.8795
      vertex 1.14981 1.99153 71.8795
    endloop
  endfacet
  facet normal 0 0 1
    outer loop
      vertex 0.240376 2.28703 71.8795
      vertex -2.24937 0.478119 71.8795
      vertex 0.710624 2.18707 71.8795
    endloop
  endfacet
  facet normal 0 0 1
    outer loop
      vertex -0.240376 2.28703 71.8795
      vertex -2.24937 0.478119 71.8795
      vertex 0.240376 2.28703 71.8795
    endloop
  endfacet
  facet normal 0 0 1
    outer loop
      vertex -0.710624 2.18707 71.8795
      vertex -2.24937 0.478119 71.8795
      vertex -0.240376 2.28703 71.8795
    endloop
  endfacet
  facet normal 0 0 1
    outer loop
      vertex -1.14981 1.99153 71.8795
      vertex -2.24937 0.478119 71.8795
      vertex -0.710624 2.18707 71.8795
    endloop
  endfacet
  facet normal 0 0 1
    outer loop
      vertex -1.53875 1.70896 71.8795
      vertex -2.24937 0.478119 71.8795
      vertex -1.14981 1.99153 71.8795
    endloop
  endfacet
  facet normal 0 0 1
    outer loop
      vertex -1.86044 1.35169 71.8795
      vertex -2.24937 0.478119 71.8795
      vertex -1.53875 1.70896 71.8795
    endloop
  endfacet
  facet normal 0 0 1
    outer loop
      vertex -2.10081 0.935342 71.8795
      vertex -2.24937 0.478119 71.8795
      vertex -1.86044 1.35169 71.8795
    endloop
  endfacet
endsolid OpenSCAD_Model
