solid OpenSCAD_Model
  facet normal 0 0 -1
    outer loop
      vertex -21.5192 4.57406 0
      vertex -20.098 8.94821 0
      vertex -22 0 0
    endloop
  endfacet
  facet normal 0 0 -1
    outer loop
      vertex -22 0 0
      vertex -20.098 8.94821 0
      vertex -17.7984 12.9313 0
    endloop
  endfacet
  facet normal 0 0 -1
    outer loop
      vertex -22 0 0
      vertex -17.7984 12.9313 0
      vertex -14.7209 16.3492 0
    endloop
  endfacet
  facet normal 0 0 -1
    outer loop
      vertex -22 0 0
      vertex -14.7209 16.3492 0
      vertex -11 19.0526 0
    endloop
  endfacet
  facet normal 0 0 -1
    outer loop
      vertex -22 0 0
      vertex -11 19.0526 0
      vertex -6.79837 20.9232 0
    endloop
  endfacet
  facet normal 0 0 -1
    outer loop
      vertex -22 0 0
      vertex -6.79837 20.9232 0
      vertex -2.29963 21.8795 0
    endloop
  endfacet
  facet normal 0 0 -1
    outer loop
      vertex -22 0 0
      vertex -2.29963 21.8795 0
      vertex 2.29963 21.8795 0
    endloop
  endfacet
  facet normal 0 0 -1
    outer loop
      vertex -22 0 0
      vertex 2.29963 21.8795 0
      vertex 6.79837 20.9232 0
    endloop
  endfacet
  facet normal 0 0 -1
    outer loop
      vertex -22 0 0
      vertex 6.79837 20.9232 0
      vertex 11 19.0526 0
    endloop
  endfacet
  facet normal 0 0 -1
    outer loop
      vertex -22 0 0
      vertex 11 19.0526 0
      vertex 14.7209 16.3492 0
    endloop
  endfacet
  facet normal 0 0 -1
    outer loop
      vertex -22 0 0
      vertex 14.7209 16.3492 0
      vertex 17.7984 12.9313 0
    endloop
  endfacet
  facet normal 0 0 -1
    outer loop
      vertex -22 0 0
      vertex 17.7984 12.9313 0
      vertex 20.098 8.94821 0
    endloop
  endfacet
  facet normal 0 0 -1
    outer loop
      vertex -22 0 0
      vertex 20.098 8.94821 0
      vertex 21.5192 4.57406 0
    endloop
  endfacet
  facet normal 0 0 -1
    outer loop
      vertex -22 0 0
      vertex 21.5192 4.57406 0
      vertex 22 0 0
    endloop
  endfacet
  facet normal 0 0 -1
    outer loop
      vertex -22 0 0
      vertex 22 0 0
      vertex 21.5192 -4.57406 0
    endloop
  endfacet
  facet normal 0 0 -1
    outer loop
      vertex -22 0 0
      vertex 21.5192 -4.57406 0
      vertex 20.098 -8.94821 0
    endloop
  endfacet
  facet normal 0 0 -1
    outer loop
      vertex -22 0 0
      vertex 20.098 -8.94821 0
      vertex 17.7984 -12.9313 0
    endloop
  endfacet
  facet normal 0 0 -1
    outer loop
      vertex -22 0 0
      vertex 17.7984 -12.9313 0
      vertex 14.7209 -16.3492 0
    endloop
  endfacet
  facet normal 0 0 -1
    outer loop
      vertex -22 0 0
      vertex 14.7209 -16.3492 0
      vertex 11 -19.0526 0
    endloop
  endfacet
  facet normal 0 0 -1
    outer loop
      vertex -22 0 0
      vertex 11 -19.0526 0
      vertex 6.79837 -20.9232 0
    endloop
  endfacet
  facet normal 0 0 -1
    outer loop
      vertex -22 0 0
      vertex 6.79837 -20.9232 0
      vertex 2.29963 -21.8795 0
    endloop
  endfacet
  facet normal 0 0 -1
    outer loop
      vertex -22 0 0
      vertex 2.29963 -21.8795 0
      vertex -2.29963 -21.8795 0
    endloop
  endfacet
  facet normal 0 0 -1
    outer loop
      vertex -22 0 0
      vertex -2.29963 -21.8795 0
      vertex -6.79837 -20.9232 0
    endloop
  endfacet
  facet normal 0 0 -1
    outer loop
      vertex -22 0 0
      vertex -6.79837 -20.9232 0
      vertex -11 -19.0526 0
    endloop
  endfacet
  facet normal 0 0 -1
    outer loop
      vertex -22 0 0
      vertex -11 -19.0526 0
      vertex -14.7209 -16.3492 0
    endloop
  endfacet
  facet normal 0 0 -1
    outer loop
      vertex -22 0 0
      vertex -14.7209 -16.3492 0
      vertex -17.7984 -12.9313 0
    endloop
  endfacet
  facet normal 0 0 -1
    outer loop
      vertex -22 0 0
      vertex -17.7984 -12.9313 0
      vertex -20.098 -8.94821 0
    endloop
  endfacet
  facet normal 0 0 -1
    outer loop
      vertex -22 0 0
      vertex -20.098 -8.94821 0
      vertex -21.5192 -4.57406 0
    endloop
  endfacet
  facet normal 0.994522 0.104529 0
    outer loop
      vertex 21.5192 4.57406 0
      vertex 21.5192 4.57406 50
      vertex 22 0 50
    endloop
  endfacet
  facet normal 0.994522 0.104529 0
    outer loop
      vertex 22 0 0
      vertex 21.5192 4.57406 0
      vertex 22 0 50
    endloop
  endfacet
  facet normal 0.951057 0.309017 0
    outer loop
      vertex 20.098 8.94821 0
      vertex 20.098 8.94821 50
      vertex 21.5192 4.57406 50
    endloop
  endfacet
  facet normal 0.951057 0.309017 0
    outer loop
      vertex 21.5192 4.57406 0
      vertex 20.098 8.94821 0
      vertex 21.5192 4.57406 50
    endloop
  endfacet
  facet normal -0.994522 0.104529 0
    outer loop
      vertex -22 0 50
      vertex -21.5192 4.57406 50
      vertex -22 0 0
    endloop
  endfacet
  facet normal -0.994522 0.104529 0
    outer loop
      vertex -22 0 0
      vertex -21.5192 4.57406 50
      vertex -21.5192 4.57406 0
    endloop
  endfacet
  facet normal -0.994522 -0.104529 0
    outer loop
      vertex -21.5192 -4.57406 0
      vertex -21.5192 -4.57406 50
      vertex -22 0 0
    endloop
  endfacet
  facet normal -0.994522 -0.104529 0
    outer loop
      vertex -22 0 0
      vertex -21.5192 -4.57406 50
      vertex -22 0 50
    endloop
  endfacet
  facet normal -0.951057 -0.309017 0
    outer loop
      vertex -20.098 -8.94821 0
      vertex -20.098 -8.94821 50
      vertex -21.5192 -4.57406 0
    endloop
  endfacet
  facet normal -0.951057 -0.309017 0
    outer loop
      vertex -21.5192 -4.57406 0
      vertex -20.098 -8.94821 50
      vertex -21.5192 -4.57406 50
    endloop
  endfacet
  facet normal -0.866025 -0.5 0
    outer loop
      vertex -17.7984 -12.9313 0
      vertex -17.7984 -12.9313 50
      vertex -20.098 -8.94821 0
    endloop
  endfacet
  facet normal -0.866025 -0.5 0
    outer loop
      vertex -20.098 -8.94821 0
      vertex -17.7984 -12.9313 50
      vertex -20.098 -8.94821 50
    endloop
  endfacet
  facet normal -0.743145 -0.669131 0
    outer loop
      vertex -14.7209 -16.3492 0
      vertex -14.7209 -16.3492 50
      vertex -17.7984 -12.9313 0
    endloop
  endfacet
  facet normal -0.743145 -0.669131 0
    outer loop
      vertex -17.7984 -12.9313 0
      vertex -14.7209 -16.3492 50
      vertex -17.7984 -12.9313 50
    endloop
  endfacet
  facet normal -0.587785 -0.809017 0
    outer loop
      vertex -14.7209 -16.3492 0
      vertex -11 -19.0526 0
      vertex -11 -19.0526 50
    endloop
  endfacet
  facet normal -0.587785 -0.809017 0
    outer loop
      vertex -14.7209 -16.3492 50
      vertex -14.7209 -16.3492 0
      vertex -11 -19.0526 50
    endloop
  endfacet
  facet normal -0.406737 -0.913545 0
    outer loop
      vertex -11 -19.0526 0
      vertex -6.79837 -20.9232 0
      vertex -6.79837 -20.9232 50
    endloop
  endfacet
  facet normal -0.406737 -0.913545 0
    outer loop
      vertex -11 -19.0526 50
      vertex -11 -19.0526 0
      vertex -6.79837 -20.9232 50
    endloop
  endfacet
  facet normal -0.207912 -0.978148 0
    outer loop
      vertex -6.79837 -20.9232 0
      vertex -2.29963 -21.8795 0
      vertex -2.29963 -21.8795 50
    endloop
  endfacet
  facet normal -0.207912 -0.978148 0
    outer loop
      vertex -6.79837 -20.9232 50
      vertex -6.79837 -20.9232 0
      vertex -2.29963 -21.8795 50
    endloop
  endfacet
  facet normal 0 -1 0
    outer loop
      vertex -2.29963 -21.8795 0
      vertex 2.29963 -21.8795 0
      vertex 2.29963 -21.8795 50
    endloop
  endfacet
  facet normal 0 -1 0
    outer loop
      vertex -2.29963 -21.8795 50
      vertex -2.29963 -21.8795 0
      vertex 2.29963 -21.8795 50
    endloop
  endfacet
  facet normal 0.207912 -0.978148 0
    outer loop
      vertex 2.29963 -21.8795 0
      vertex 6.79837 -20.9232 0
      vertex 6.79837 -20.9232 50
    endloop
  endfacet
  facet normal 0.207912 -0.978148 0
    outer loop
      vertex 2.29963 -21.8795 50
      vertex 2.29963 -21.8795 0
      vertex 6.79837 -20.9232 50
    endloop
  endfacet
  facet normal 0.406737 -0.913545 0
    outer loop
      vertex 6.79837 -20.9232 0
      vertex 11 -19.0526 0
      vertex 11 -19.0526 50
    endloop
  endfacet
  facet normal 0.406737 -0.913545 0
    outer loop
      vertex 6.79837 -20.9232 50
      vertex 6.79837 -20.9232 0
      vertex 11 -19.0526 50
    endloop
  endfacet
  facet normal 0.587785 -0.809017 0
    outer loop
      vertex 11 -19.0526 0
      vertex 14.7209 -16.3492 0
      vertex 14.7209 -16.3492 50
    endloop
  endfacet
  facet normal 0.587785 -0.809017 0
    outer loop
      vertex 11 -19.0526 50
      vertex 11 -19.0526 0
      vertex 14.7209 -16.3492 50
    endloop
  endfacet
  facet normal 0.743145 -0.669131 0
    outer loop
      vertex 14.7209 -16.3492 0
      vertex 17.7984 -12.9313 0
      vertex 17.7984 -12.9313 50
    endloop
  endfacet
  facet normal 0.743145 -0.669131 0
    outer loop
      vertex 14.7209 -16.3492 50
      vertex 14.7209 -16.3492 0
      vertex 17.7984 -12.9313 50
    endloop
  endfacet
  facet normal 0.866025 -0.5 0
    outer loop
      vertex 17.7984 -12.9313 0
      vertex 20.098 -8.94821 0
      vertex 20.098 -8.94821 50
    endloop
  endfacet
  facet normal 0.866025 -0.5 0
    outer loop
      vertex 17.7984 -12.9313 50
      vertex 17.7984 -12.9313 0
      vertex 20.098 -8.94821 50
    endloop
  endfacet
  facet normal 0.951057 -0.309017 0
    outer loop
      vertex 20.098 -8.94821 0
      vertex 21.5192 -4.57406 0
      vertex 21.5192 -4.57406 50
    endloop
  endfacet
  facet normal 0.951057 -0.309017 0
    outer loop
      vertex 20.098 -8.94821 50
      vertex 20.098 -8.94821 0
      vertex 21.5192 -4.57406 50
    endloop
  endfacet
  facet normal 0.994522 -0.104529 0
    outer loop
      vertex 21.5192 -4.57406 0
      vertex 22 0 0
      vertex 22 0 50
    endloop
  endfacet
  facet normal 0.994522 -0.104529 0
    outer loop
      vertex 21.5192 -4.57406 50
      vertex 21.5192 -4.57406 0
      vertex 22 0 50
    endloop
  endfacet
  facet normal 0.866025 0.5 0
    outer loop
      vertex 17.7984 12.9313 0
      vertex 17.7984 12.9313 50
      vertex 20.098 8.94821 50
    endloop
  endfacet
  facet normal 0.866025 0.5 0
    outer loop
      vertex 20.098 8.94821 0
      vertex 17.7984 12.9313 0
      vertex 20.098 8.94821 50
    endloop
  endfacet
  facet normal 0.743145 0.669131 0
    outer loop
      vertex 14.7209 16.3492 0
      vertex 14.7209 16.3492 50
      vertex 17.7984 12.9313 50
    endloop
  endfacet
  facet normal 0.743145 0.669131 0
    outer loop
      vertex 17.7984 12.9313 0
      vertex 14.7209 16.3492 0
      vertex 17.7984 12.9313 50
    endloop
  endfacet
  facet normal 0.587785 0.809017 0
    outer loop
      vertex 11 19.0526 50
      vertex 14.7209 16.3492 50
      vertex 11 19.0526 0
    endloop
  endfacet
  facet normal 0.587785 0.809017 0
    outer loop
      vertex 11 19.0526 0
      vertex 14.7209 16.3492 50
      vertex 14.7209 16.3492 0
    endloop
  endfacet
  facet normal 0.406737 0.913545 0
    outer loop
      vertex 6.79837 20.9232 50
      vertex 11 19.0526 50
      vertex 6.79837 20.9232 0
    endloop
  endfacet
  facet normal 0.406737 0.913545 0
    outer loop
      vertex 6.79837 20.9232 0
      vertex 11 19.0526 50
      vertex 11 19.0526 0
    endloop
  endfacet
  facet normal 0.207912 0.978148 0
    outer loop
      vertex 2.29963 21.8795 50
      vertex 6.79837 20.9232 50
      vertex 2.29963 21.8795 0
    endloop
  endfacet
  facet normal 0.207912 0.978148 0
    outer loop
      vertex 2.29963 21.8795 0
      vertex 6.79837 20.9232 50
      vertex 6.79837 20.9232 0
    endloop
  endfacet
  facet normal 0 1 0
    outer loop
      vertex -2.29963 21.8795 50
      vertex 2.29963 21.8795 50
      vertex -2.29963 21.8795 0
    endloop
  endfacet
  facet normal 0 1 0
    outer loop
      vertex -2.29963 21.8795 0
      vertex 2.29963 21.8795 50
      vertex 2.29963 21.8795 0
    endloop
  endfacet
  facet normal -0.207912 0.978148 0
    outer loop
      vertex -6.79837 20.9232 50
      vertex -2.29963 21.8795 50
      vertex -6.79837 20.9232 0
    endloop
  endfacet
  facet normal -0.207912 0.978148 0
    outer loop
      vertex -6.79837 20.9232 0
      vertex -2.29963 21.8795 50
      vertex -2.29963 21.8795 0
    endloop
  endfacet
  facet normal -0.406737 0.913545 0
    outer loop
      vertex -11 19.0526 50
      vertex -6.79837 20.9232 50
      vertex -11 19.0526 0
    endloop
  endfacet
  facet normal -0.406737 0.913545 0
    outer loop
      vertex -11 19.0526 0
      vertex -6.79837 20.9232 50
      vertex -6.79837 20.9232 0
    endloop
  endfacet
  facet normal -0.587785 0.809017 0
    outer loop
      vertex -14.7209 16.3492 50
      vertex -11 19.0526 50
      vertex -14.7209 16.3492 0
    endloop
  endfacet
  facet normal -0.587785 0.809017 0
    outer loop
      vertex -14.7209 16.3492 0
      vertex -11 19.0526 50
      vertex -11 19.0526 0
    endloop
  endfacet
  facet normal -0.743145 0.669131 0
    outer loop
      vertex -17.7984 12.9313 50
      vertex -14.7209 16.3492 50
      vertex -17.7984 12.9313 0
    endloop
  endfacet
  facet normal -0.743145 0.669131 0
    outer loop
      vertex -17.7984 12.9313 0
      vertex -14.7209 16.3492 50
      vertex -14.7209 16.3492 0
    endloop
  endfacet
  facet normal -0.866025 0.5 0
    outer loop
      vertex -20.098 8.94821 50
      vertex -17.7984 12.9313 50
      vertex -20.098 8.94821 0
    endloop
  endfacet
  facet normal -0.866025 0.5 0
    outer loop
      vertex -20.098 8.94821 0
      vertex -17.7984 12.9313 50
      vertex -17.7984 12.9313 0
    endloop
  endfacet
  facet normal -0.951057 0.309017 0
    outer loop
      vertex -21.5192 4.57406 50
      vertex -20.098 8.94821 50
      vertex -21.5192 4.57406 0
    endloop
  endfacet
  facet normal -0.951057 0.309017 0
    outer loop
      vertex -21.5192 4.57406 0
      vertex -20.098 8.94821 50
      vertex -20.098 8.94821 0
    endloop
  endfacet
  facet normal 0 0 1
    outer loop
      vertex -22 0 50
      vertex -21.5192 -4.57406 50
      vertex -20.098 -8.94821 50
    endloop
  endfacet
  facet normal 0 0 1
    outer loop
      vertex -14.7209 -16.3492 50
      vertex -22 0 50
      vertex -17.7984 -12.9313 50
    endloop
  endfacet
  facet normal 0 0 1
    outer loop
      vertex -17.7984 -12.9313 50
      vertex -22 0 50
      vertex -20.098 -8.94821 50
    endloop
  endfacet
  facet normal 0 0 1
    outer loop
      vertex -11 -19.0526 50
      vertex -22 0 50
      vertex -14.7209 -16.3492 50
    endloop
  endfacet
  facet normal 0 0 1
    outer loop
      vertex -6.79837 -20.9232 50
      vertex -22 0 50
      vertex -11 -19.0526 50
    endloop
  endfacet
  facet normal 0 0 1
    outer loop
      vertex -2.29963 -21.8795 50
      vertex -22 0 50
      vertex -6.79837 -20.9232 50
    endloop
  endfacet
  facet normal 0 0 1
    outer loop
      vertex 2.29963 -21.8795 50
      vertex -22 0 50
      vertex -2.29963 -21.8795 50
    endloop
  endfacet
  facet normal 0 0 1
    outer loop
      vertex 6.79837 -20.9232 50
      vertex -22 0 50
      vertex 2.29963 -21.8795 50
    endloop
  endfacet
  facet normal 0 0 1
    outer loop
      vertex 11 -19.0526 50
      vertex -22 0 50
      vertex 6.79837 -20.9232 50
    endloop
  endfacet
  facet normal 0 0 1
    outer loop
      vertex 14.7209 -16.3492 50
      vertex -22 0 50
      vertex 11 -19.0526 50
    endloop
  endfacet
  facet normal 0 0 1
    outer loop
      vertex 17.7984 -12.9313 50
      vertex -22 0 50
      vertex 14.7209 -16.3492 50
    endloop
  endfacet
  facet normal 0 0 1
    outer loop
      vertex 20.098 -8.94821 50
      vertex -22 0 50
      vertex 17.7984 -12.9313 50
    endloop
  endfacet
  facet normal 0 0 1
    outer loop
      vertex 21.5192 -4.57406 50
      vertex -22 0 50
      vertex 20.098 -8.94821 50
    endloop
  endfacet
  facet normal 0 0 1
    outer loop
      vertex 22 0 50
      vertex -22 0 50
      vertex 21.5192 -4.57406 50
    endloop
  endfacet
  facet normal 0 0 1
    outer loop
      vertex 21.5192 4.57406 50
      vertex -22 0 50
      vertex 22 0 50
    endloop
  endfacet
  facet normal 0 0 1
    outer loop
      vertex 20.098 8.94821 50
      vertex -22 0 50
      vertex 21.5192 4.57406 50
    endloop
  endfacet
  facet normal 0 0 1
    outer loop
      vertex 17.7984 12.9313 50
      vertex -22 0 50
      vertex 20.098 8.94821 50
    endloop
  endfacet
  facet normal 0 0 1
    outer loop
      vertex 14.7209 16.3492 50
      vertex -22 0 50
      vertex 17.7984 12.9313 50
    endloop
  endfacet
  facet normal 0 0 1
    outer loop
      vertex 11 19.0526 50
      vertex -22 0 50
      vertex 14.7209 16.3492 50
    endloop
  endfacet
  facet normal 0 0 1
    outer loop
      vertex 6.79837 20.9232 50
      vertex -22 0 50
      vertex 11 19.0526 50
    endloop
  endfacet
  facet normal 0 0 1
    outer loop
      vertex 2.29963 21.8795 50
      vertex -22 0 50
      vertex 6.79837 20.9232 50
    endloop
  endfacet
  facet normal 0 0 1
    outer loop
      vertex -2.29963 21.8795 50
      vertex -22 0 50
      vertex 2.29963 21.8795 50
    endloop
  endfacet
  facet normal 0 0 1
    outer loop
      vertex -6.79837 20.9232 50
      vertex -22 0 50
      vertex -2.29963 21.8795 50
    endloop
  endfacet
  facet normal 0 0 1
    outer loop
      vertex -11 19.0526 50
      vertex -22 0 50
      vertex -6.79837 20.9232 50
    endloop
  endfacet
  facet normal 0 0 1
    outer loop
      vertex -14.7209 16.3492 50
      vertex -22 0 50
      vertex -11 19.0526 50
    endloop
  endfacet
  facet normal 0 0 1
    outer loop
      vertex -17.7984 12.9313 50
      vertex -22 0 50
      vertex -14.7209 16.3492 50
    endloop
  endfacet
  facet normal 0 0 1
    outer loop
      vertex -20.098 8.94821 50
      vertex -22 0 50
      vertex -17.7984 12.9313 50
    endloop
  endfacet
  facet normal 0 0 1
    outer loop
      vertex -21.5192 4.57406 50
      vertex -22 0 50
      vertex -20.098 8.94821 50
    endloop
  endfacet
endsolid OpenSCAD_Model
